<svg width="95px" height="92px" xmlns="http://www.w3.org/2000/svg" viewBox="0 0 379.56 365.4"><defs><style>.cls-1{fill:#0f3196;}</style></defs><g id="Слой_2" data-name="Слой 2"><g id="Шар_1" data-name="Шар 1"><path class="cls-1" d="M314.46,208.82v54.62H204.13l51.29,95-12.76,6.94c-47-87.06-93.92-173.79-141-260.87l12.75-6.94c6.29,11.61,12.39,22.85,18.46,34.09,13.06,24.15,26.2,48.27,39.06,72.52,2,3.69,4.28,4.7,8.22,4.69,42.65-.12,85.3-.07,128-.07ZM300,249V223.68H182.66c4,7.43,7.86,14.17,11.27,21.13,1.65,3.37,3.8,4.28,7.4,4.26,31.3-.14,62.59-.09,93.89-.1Z"/><path class="cls-1" d="M0,263.23V209.09H136.31v14H14.71v25.8H158.26v14.29Z"/><path class="cls-1" d="M348.41,186.16h-14.6c0-4.09,0-8.17,0-12.26-.15-14.55-7.67-22-22.37-22.12-15.33-.08-30.65.05-46-.07-23.37-.17-38.93-13.55-42.63-36.6-.7-4.41.31-10-2.09-13-2.15-2.61-8-2-12.07-3.23a51.27,51.27,0,0,1-36.91-54.84c2.36-22.34,23.48-42.12,47-44,6.11-.5,9.87,2.11,10,7s-2.79,7.34-9,7.6c-19.39.82-33.38,15.1-34.13,34.83-.74,19.43,12.59,34.7,32,36.63,3.14.31,6.32.3,9.48.4,6.62.21,9.11,2.92,9.19,9.65.07,5.31-.19,10.73.74,15.92,3.09,17.2,12.58,25,29.94,25.18,16.14.18,32.32-.28,48.43.6,19.07,1,31.67,14.48,32.82,33.71C348.65,176.31,348.41,181.11,348.41,186.16Z"/><path class="cls-1" d="M301.43,94.94c7.68,0,15.69.3,23.66,0,26.34-1.15,41.8,14.1,49.3,35.7,4.37,12.58,5.41,25.67,5.13,38.91-.12,5.45,0,10.91,0,16.65H364.87c0-7.36,0-14.62,0-21.88.06-10.9-1-21.61-4.92-31.88-5.72-15-16.84-22.79-32.74-22.8-12.67,0-25.33.06-38,0-8.28-.06-11.25-5.49-7.06-12.62,7.24-12.29,13.46-25,13.63-39.65.11-9.31-3.69-15.5-12.65-18.09-6.95-2-14.34-2.66-21.58-3.39-6.18-.62-9.14-2.76-8.91-7.64.21-4.72,3.8-7.7,9.61-6.77,9.13,1.46,18.61,2.44,27.13,5.72,15.16,5.84,23.38,21.26,20.4,37.23C307.89,74.54,304.36,84.42,301.43,94.94Z"/><path class="cls-1" d="M348.15,263.36h-14V208.9h14Z"/><path class="cls-1" d="M379.14,263.34H365.28V209h13.86Z"/></g></g></svg>