<svg width="83px" height="96px" xmlns="http://www.w3.org/2000/svg" viewBox="0 0 331.17 381.2"><defs><style>.cls-1{fill:#0f3196;}</style></defs><g id="Слой_2" data-name="Слой 2"><g id="Шар_1" data-name="Шар 1"><path class="cls-1" d="M85.76,304.17h59.41v-5.63c0-15.14.09-30.28,0-45.41a11.41,11.41,0,0,1,5-10.15c9.06-6.7,17.92-13.68,27.26-20.85,2.95,3.83,5.65,7.35,8.81,11.47-6,4.59-11.38,9.5-17.49,13.3-7.12,4.43-9.45,9.94-9.3,18.41.56,31.93.29,63.87.12,95.81,0,4.29,1,5.67,5.54,5.64,29.27-.21,58.55-.11,87.82-.11h5.36V277.51h-38c0-4.51-.31-8.32.2-12,.14-1.08,2.61-2.59,4-2.62,11.12-.21,22.26-.12,34.22-.12v-5.47q0-18.22,0-36.43c0-9.67,1.72-11.45,11.18-11.47,13.14,0,26.28,0,39.42,0h6.76c.19-1.93.45-3.35.45-4.77,0-14.3.07-28.61,0-42.91,0-7.85-3.39-11.16-11.3-11.26-6.3-.08-12.6,0-19.33,0V136.11c8,0,16-.86,23.8.2,12,1.65,21.42,13.62,21.43,25.89q.08,96.06,0,192.12a26.51,26.51,0,0,1-26.86,26.86q-139.23,0-278.44,0C12,381.16.22,368.91.21,354.6q-.09-66.11,0-132.23C.18,202.91.66,183.43,0,164c-.5-15.22,13.38-28.66,28.3-28.37,34.09.67,68.19.21,102.29.21h6.65v14.41H85.78v40.4h39.89v14.72H85.76ZM15,205.63c-.1,1.36-.21,2.17-.21,3q0,73.56,0,147.11c0,7.47,3.49,10.84,11.14,10.89,13.63.09,27.26,0,40.89,0a27.25,27.25,0,0,0,3.67-.52V205.63Zm258.52,161c10.61,0,20.73,0,30.84,0,9.13,0,12.14-3.12,12.14-12.4q0-62.33,0-124.64v-5.53h-43ZM85.7,319.34v46.87h59.16V319.34ZM70.43,190.5v-40c-15.92,0-31.37-.09-46.82,0-4.52,0-8.12,2.81-8.33,7.15-.51,10.86-.17,21.77-.17,32.78Z"/><path class="cls-1" d="M212.12,0c42,.17,77.74,38.46,72.9,79.61-1.44,12.31-6.06,24.48-10.66,36.14-15.08,38.27-35.08,74.12-55.53,109.7-3.71,6.46-10,6.69-13.66.38-22.51-39.2-44.48-78.67-60.13-121.26A117.1,117.1,0,0,1,139,83c-5.51-34.41,18.11-70.11,52.51-79.89A116.09,116.09,0,0,1,204.16.41,68,68,0,0,1,212.12,0Zm-.29,208.54c2.88-5.1,5.22-9.1,7.44-13.16,16.42-30,32.9-60,44.69-92.23,3.39-9.26,6.7-19.12,7.07-28.81,1.27-32.86-24.22-58.8-57.18-59.65-35.3-.91-62.12,25-61,60.18.29,9.2,3.5,18.56,6.64,27.38,10.23,28.71,24.67,55.47,39,82.24C202.65,192.22,207,199.83,211.83,208.54Z"/><path class="cls-1" d="M247.49,74c.08,18.52-16.86,35.63-35.32,35.66-18.82,0-35.85-16.74-36.09-35.56-.24-18.46,17.15-35.95,35.74-36C230.61,38.12,247.41,55,247.49,74ZM233,74.16c0-13-8.2-21.41-21-21.4s-21.33,8.39-21.37,21.16S199.11,95,212,95C224.65,95,232.94,86.79,233,74.16Z"/></g></g></svg>