<svg width="90px" height="113px" xmlns="http://www.w3.org/2000/svg" viewBox="0 0 359.02 452.61"><defs><style>.cls-1{fill:#0f3196;}</style></defs><g id="Слой_2" data-name="Слой 2"><g id="Шар_1" data-name="Шар 1"><path class="cls-1" d="M209.93,185l-8.77-11.12a65.73,65.73,0,0,1,27.61-13.34c31.41-7.2,63.37,8,79.59,38,3.3,6.1,4.26,13.77,8.45,19,4.07,5.07,11.46,7.32,16.43,11.87,22.17,20.28,31.29,45.33,22.43,74.47-9,29.72-30.16,47.26-60.95,52.11-11.82,1.86-23.59,0-34.77-4.58l-7.77-3.22a30.19,30.19,0,0,0-.57,4c0,16.67.08,33.34-.06,50,0,3.51,1.16,4.77,4.63,5.57,26.92,6.19,52.81,15,75.58,31.3.8.58,1.57,1.21,2.8,2.16l-8.45,11c-7.21-4.27-14-8.76-21.18-12.44-24-12.27-49.75-18.69-76.24-22.47a359,359,0,0,0-83.76-1.9C110,418.6,76.19,426,45.24,443.39c-4.77,2.68-9.25,5.87-14.5,9.22-2.77-3.51-5.59-7.09-8.71-11a118.47,118.47,0,0,1,30.15-17.89c11.21-4.61,22.76-8.43,34.26-12.28,3.14-1.05,4.5-2.21,4.46-5.79-.2-17.5-.14-35,0-52.51,0-3.21-.74-4.53-4.3-5-43-5.7-75.91-35.31-84.49-76-4-19-1.73-37.78,2.46-56.45,8.38-37.39,19.87-73.68,40.88-106.1a123.29,123.29,0,0,1,21.95-25.7c20.46-17.84,44.21-16.81,64.4,1.42,14,12.64,23.57,28.44,31.49,45.24,16.94,35.95,28.58,73.67,32.47,113.2,6.21,63-35,99.33-84.44,104.54-4.56.48-6.17,1.83-6.07,6.62.32,15.33.12,30.67.12,46v5.67a378.82,378.82,0,0,1,131.47-2.73V348.07c-19.75,9.67-39.54,11.06-60.4,3.62,1.78-4.54,3.43-8.78,4.65-11.9,9.84.65,18.87,1.79,27.88,1.71s17.31-3.46,24.63-8.63c1.81-1.28,2.5-4.16,3.66-6.33.14-.26,0-.66,0-1,1.43-7.76-1.82-12.59-8.75-16.22s-13.21-8.37-19.76-12.65c-5.35-3.5-6.78-7.56-4.12-11.51,2.52-3.73,6.81-4,11.87-.79,6.54,4.2,13.06,8.43,20.72,13.37,0-7.23,0-13.28,0-19.32,0-10,0-20,.06-30,0-6,2.35-8.89,7-9,4.81-.09,7.24,2.91,7.27,9.18.05,8.14,0,16.28,0,25.66l11.17-4.46c4.17-1.67,8.28-3.5,12.52-5s8.23.22,9.69,3.79c1.58,3.85-.13,7.83-4.56,9.7q-12.18,5.14-24.53,9.9c-3,1.16-4.45,2.68-4.37,6.18.23,10.66-.08,21.33.23,32a8.67,8.67,0,0,0,3.13,6.05c32.06,21.79,83.24,5.49,88.79-40.37,3.45-28.54-10-51.32-36.51-61.88-3.32-1.32-3.9-3.6-4.49-6.36-3.45-16-11-29.66-24.22-39.59C259,169.69,233.22,169.33,213,183.05,212.09,183.7,211.08,184.27,209.93,185ZM105.37,275.71l24.24-19.94c6.18-5.08,12.27-10.27,18.57-15.2,3.64-2.85,7.62-2.33,10.24.85s2.3,7-1,10.24c-.71.7-1.51,1.3-2.28,1.94-15.18,12.51-30.3,25.09-45.58,37.47-3,2.41-4.43,4.84-4.31,8.8.3,9.83.1,19.67.14,29.51,0,1.57.22,3.14.38,5.23,5.55-.79,10.5-1.32,15.37-2.22,35.63-6.61,59-33.8,60.56-70,.7-15.83-1.78-31.21-5.14-46.54-6.71-30.49-15.5-60.29-30.09-88.06-7-13.33-15.09-26-27.61-35-13.28-9.58-27.49-9.56-40.78,0-10.1,7.26-17.44,17-23.52,27.57C32.74,158.46,20.24,199.71,15,243.08c-3.9,32.56,9.14,63.36,40,80.23a84.86,84.86,0,0,0,35.76,10.44V328c0-9.34-.18-18.68.09-28a9.92,9.92,0,0,0-4.16-8.87C71.32,278.66,56.05,266,40.8,253.32c-1.62-1.34-3.38-3-4.1-4.83a6.62,6.62,0,0,1,2.56-8.38c3.44-2.32,6.58-1.43,9.58,1q18.51,15.28,37.07,30.49c1.3,1.07,2.69,2,4.91,3.69,0-13.63.19-25.95-.15-38.26a10.81,10.81,0,0,0-3.42-7c-9-7.9-18.44-15.36-27.61-23.1-3.68-3.1-4.25-7.44-1.75-10.58,2.77-3.51,6.9-3.81,11-.52,6.12,4.89,12.09,10,18.16,14.92.93.76,2,1.34,3.74,2.45v-6.31c0-12.17-.09-24.35.08-36.51.08-5.22,3.2-8.18,7.65-8,4.18.2,6.74,3.22,6.8,8.2.06,5.17,0,10.34,0,15.51V213.5c2.18-1.57,3.51-2.44,4.73-3.44,5.29-4.33,10.52-8.72,15.81-13.05s9.11-4.48,12.23-.82,2.08,7.81-2.87,11.92c-8.85,7.35-17.76,14.62-26.53,22.06-1.41,1.19-3.17,3.06-3.2,4.64C105.26,247.94,105.37,261.07,105.37,275.71Z"/><path class="cls-1" d="M308.32,70.38c0,17.61-15.7,33.26-33.28,33.17-17.1-.08-32.69-15.63-32.76-32.66-.07-17.63,15.48-33.42,33-33.49C292.39,37.33,308.33,53.24,308.32,70.38Zm-14.59.39c.07-11.42-6.91-18.63-18.1-18.72-11.52-.1-19,7.19-19,18.48,0,11,7.59,18.62,18.52,18.67S293.67,81.87,293.73,70.77Z"/><path class="cls-1" d="M263,21.78c-2.27,2.2-4,4.93-6.51,6a6,6,0,0,1-8-3.15c-2.39-5.08-4.92-10.24-6.15-15.66-.51-2.24,1.6-5.92,3.62-7.67a5.46,5.46,0,0,1,8.32,1.4C257.44,8.45,259.76,14.66,263,21.78Z"/><path class="cls-1" d="M309.6,6.62c-3.22,7-5.64,13.35-9,19.15-1.67,2.88-5.32,3.1-8.5,1.31s-4.46-4.8-3.37-8a129,129,0,0,1,6.51-15.55A6,6,0,0,1,303.36.65C305.71,1.7,307.33,4.35,309.6,6.62Z"/><path class="cls-1" d="M324.6,82.38c6.89,3.17,13.14,5.48,18.67,8.92,1.62,1,2.38,5.79,1.43,7.87s-5,4.4-6.92,3.88a71,71,0,0,1-17.27-7.13c-1.68-1-2.57-5.43-1.89-7.72S322.39,84.39,324.6,82.38Z"/><path class="cls-1" d="M345.36,46c-.85.94-2.26,3.52-4.43,4.69a103.18,103.18,0,0,1-13.29,5.5c-4.15,1.52-7.92-.09-9.5-3.78S318,44.87,322.05,43a133.92,133.92,0,0,1,13.32-5.46C340.86,35.64,345.45,38.87,345.36,46Z"/><path class="cls-1" d="M310.08,133.89c-2.16,2.23-3.75,4.92-6.09,6.05a6,6,0,0,1-8.2-2.62,130.47,130.47,0,0,1-6.54-16.08c-1.12-3.35.45-6.73,3.78-7.61,2.47-.66,7-.34,7.91,1.18C304.45,120.51,306.85,126.89,310.08,133.89Z"/><path class="cls-1" d="M233.06,48.78c.07,6-4.43,9.72-9.27,8.21a103.93,103.93,0,0,1-15.09-6.27c-3.68-1.83-4.32-5.46-2.92-9a6.48,6.48,0,0,1,8.55-4,98.16,98.16,0,0,1,15,6.42C231.26,45.12,232.29,47.76,233.06,48.78Z"/><path class="cls-1" d="M251.13,140.77c-6.53.21-10.11-4.78-8.26-10.05A126.09,126.09,0,0,1,248.69,117c1.86-3.8,5.21-5.09,9.18-3.55s5.38,5.06,4.08,8.94A97.39,97.39,0,0,1,255.74,137C254.72,138.92,252.13,140,251.13,140.77Z"/><path class="cls-1" d="M226.67,82.92c2.26,2.26,5.55,4.07,6,6.41s-1.1,6.59-3.11,7.84a52.32,52.32,0,0,1-15.5,6.4c-2.25.52-6.48-1.53-7.56-3.58s-.36-7.18,1.29-8.21C213.3,88.33,219.59,86.1,226.67,82.92Z"/></g></g></svg>