<svg  width="108px" height="79px" xmlns="http://www.w3.org/2000/svg" viewBox="0 0 429.09 316.75"><defs><style>.cls-1{fill:#0f3196;}</style></defs><g id="Слой_2" data-name="Слой 2"><g id="Шар_1" data-name="Шар 1"><path class="cls-1" d="M218,302.06h75.21V262.8H308v8.67c0,12,0,24,0,36,0,6.69-2.39,9.21-8.86,9.22q-43.5.06-87,0c-6.25,0-8.73-2.55-8.75-8.84q-.06-31.5,0-63v-6.53c-2-.17-3.77-.44-5.51-.44-12.5,0-25,.14-37.5-.09-4.28-.08-5.3,1.49-5.26,5.53.17,21,.1,42,.07,63,0,8.54-1.79,10.4-10.12,10.41q-42.26,0-84.5,0c-7.77,0-9.74-2.05-9.74-9.83q0-66.75-.06-133.52a11.8,11.8,0,0,1,4.2-9.6q59-52.59,117.79-105.32c5.32-4.77,8.53-4.5,13.8.24,11.79,10.57,23.74,21,35.62,31.42,1.35,1.2,2.65,2.46,4.27,4l-9.5,10.8L179.55,72.18c-1.32,1.06-2.51,1.92-3.59,2.9q-53.27,47.7-106.56,95.37a11.52,11.52,0,0,0-4.3,9.46q.2,58.5,0,117c0,4.06,1,5.55,5.28,5.52q32.5-.26,65,0c4.17,0,5.36-1.34,5.32-5.44-.17-21-.09-42-.06-63,0-8.42,2-10.44,10.21-10.45q28.5,0,57,0C216,223.54,218,225.6,218,234q0,30.77,0,61.52Z"/><path class="cls-1" d="M429.06,113.06c0,14.66-.11,29.32,0,44,.15,16-6.39,29.43-15.85,41.63-16.25,21-37.6,35.75-60.81,47.77-21.23,11-13.87,11.11-35.18,0-22.9-11.92-44-26.45-60.23-46.95-11-13.86-17-29.27-16.65-47.42.57-28.48.14-57,.16-85.47,0-8.22,2.09-10.43,10.27-10.59,19.67-.4,38.82-3,56.3-12.89,8.7-4.92,16-11.26,21.06-20.08,3.28-5.72,9.68-6.29,12.83-.93,11.71,19.94,30.83,27.55,52,31.44,8.79,1.61,17.85,1.79,26.8,2.43,6.86.49,9.24,2.76,9.25,9.58Q429.1,89.32,429.06,113.06ZM334.9,39.44c-3.23,3-6.11,6-9.34,8.6-19.18,15.32-41.9,20.45-65.64,22.18-4.12.3-4.91,1.67-4.89,5.36.13,25.67.55,51.36-.12,77-.39,14.81,4.87,27,13.66,38.09,17.07,21.63,40,35.36,64.25,47.26,1.31.65,3.62.3,5-.43,7.4-3.8,14.84-7.58,21.93-11.91,17.9-11,34.44-23.52,46-41.51,4.71-7.35,8.68-15.08,8.7-24.11q.06-42.26,0-84.53c0-1.59-.17-3.19-.26-4.72C384.1,68.46,356.12,62.44,334.9,39.44Z"/><path class="cls-1" d="M89.67,97.07V69.9c0-7.5-.11-15,.11-22.5.11-3.56-.78-5.22-4.71-4.95a101.21,101.21,0,0,1-13.49,0c-4.14-.28-5.47,1.22-5.44,5.37.18,21.34,0,42.67.2,64a11,11,0,0,1-4.23,9.37c-16.55,14.23-32.9,28.7-49.33,43.07-1,.86-2,1.61-3.36,2.62L0,156.38c1.58-1.47,2.94-2.83,4.39-4.09,14.53-12.75,29-25.56,43.66-38.17a10.24,10.24,0,0,0,3.86-8.62c-.09-24,.07-48-.14-72,0-4.44,1.25-5.69,5.64-5.6,13.66.27,27.33.09,41,.11,1.78,0,3.57.18,5.86.3V65L178.83,0l49.35,42.43L218.76,53.5,178.89,19.3Z"/><path class="cls-1" d="M329.82,165.1c1.47-2.07,2.46-3.38,3.37-4.75q20-29.86,40-59.74c.74-1.11,1.45-2.23,2.21-3.33,3.28-4.69,7.17-5.92,10.95-3.46s4.21,6.82,1.24,11.38c-3.09,4.74-6.29,9.41-9.44,14.12q-20.42,30.5-40.83,61c-4.83,7.2-9.91,7.29-14.77.14q-15.15-22.32-30.14-44.73c-3.17-4.74-2.8-8.86.85-11.44,3.88-2.76,7.83-1.62,11.26,3.43C312.87,140,321.13,152.24,329.82,165.1Z"/></g></g></svg>