<svg  width="95px" height="95px" xmlns="http://www.w3.org/2000/svg" viewBox="0 0 379.34 377.17"><defs><style>.cls-1{fill:#0f3196;}</style></defs><g id="Слой_2" data-name="Слой 2"><g id="Шар_1" data-name="Шар 1"><path class="cls-1" d="M240.21,332.83l-5.3.6,5.83,3C234.93,342.63,230.05,349,224,354a243.2,243.2,0,0,1-27.71,20.07c-7.06,4.34-15.1,3.74-23,.69-28-10.74-50.94-28.68-70.93-50.34C67.1,286.18,37.78,243.78,16.86,196,6.61,172.56-.17,148.21,0,122.25c.07-10.12,3.65-18.39,11.28-24.41A140.72,140.72,0,0,1,53.13,75.16c9.64-3.3,18.33.22,23.06,9.56C81.5,95.21,85.8,106.22,90.51,117c3,7,5.94,14.06,9.09,21,4.79,10.59,3.7,20.3-3.82,29.26-4.8,5.73-9.41,11.64-14.3,17.29-2,2.31-2.43,4.08-.83,7a524,524,0,0,0,56.83,82.92c2,2.4,3.83,2.55,6.46,1.63q10.8-3.75,21.7-7.26c10.82-3.48,20.11-1.2,28.25,7,12.56,12.59,25.43,24.87,38.14,37.32C239.17,320.08,241.1,324.66,240.21,332.83ZM14.6,126c.4,19.55,4.61,36.81,11.22,53.38,21.64,54.35,54.43,101.44,95.09,143.11,16.35,16.76,35.3,30.26,57.51,38.64,5.6,2.12,11,1.84,15.6-1.72,9.46-7.3,18.85-14.73,27.8-22.64,5.66-5,5.32-8-.08-13.28-12.69-12.48-25.57-24.76-38.11-37.39-4.21-4.24-8.51-5.16-14-3.28-9.25,3.19-18.64,6-27.85,9.31-4.84,1.73-8.07.41-11.31-3.37a544,544,0,0,1-65.8-96.07c-2.35-4.36-2.34-8,1-11.82,6.49-7.58,12.76-15.34,19.08-23.06,2.9-3.54,4.35-7.29,2.33-11.95C79.73,128.94,72.55,112,65.25,95.05c-3.12-7.25-5.15-8.41-12.19-5-8.94,4.35-17.46,9.57-26.21,14.33C17.63,109.42,12.17,116.37,14.6,126Z"/><path class="cls-1" d="M276,173.87v14.54c-3.74,0-7.48.22-11.19-.06-3.87-.3-5.41,1-5.21,5,.27,5.42.07,10.86.07,16.56H245.43c0-5.5-.22-10.91.07-16.29.23-4.21-1.34-5.46-5.44-5.31-8,.29-15.95.15-23.92.09-8.39-.07-11.53-5.41-7.2-12.44,12.12-19.63,24.39-39.17,36.5-58.8,2.27-3.69,5.11-5.79,9.44-4.41s5.12,5.08,5.09,9.16c-.13,16.11-.14,32.21-.29,48.32,0,2.89,1.21,3.75,3.9,3.66C267.53,173.77,271.5,173.87,276,173.87Zm-48.65,0c5.66,0,10-.11,14.26,0,2.78.1,3.86-.95,3.82-3.75-.11-6.81,0-13.62-.07-20.43a15.28,15.28,0,0,0-1-3.32Z"/><path class="cls-1" d="M159.75,145H146.67c-3.39-11.77,5.52-26.58,18.89-31.08,10.46-3.53,19.7-.82,27.47,6.73,8,7.76,11.32,17,8,28.08-2.34,7.7-7.19,13.63-12.94,19.14-7.41,7.1-14.4,14.63-21.48,22.07-1.06,1.12-1.62,2.72-3,5.15h16.29c5.82,0,11.64.09,17.45,0,2.77,0,3.91,1.11,3.82,3.85-.1,3.28,0,6.57,0,10.2h-55c-.29-8.5,1.27-16.55,6.18-23.15,6.3-8.47,13.54-16.26,20.6-24.15,3.86-4.31,8.6-7.87,12.17-12.38a14.88,14.88,0,0,0,.33-17.32c-3.85-5.21-9.32-5.91-15.22-4.76a11.37,11.37,0,0,0-9.55,10.1C160.2,139.91,160,142.37,159.75,145Z"/><path class="cls-1" d="M333.3,280c-1.4,1.81-2.56,4.77-4.54,5.49-2.27.84-6.22.71-7.79-.76-10.06-9.45-19.76-19.28-29.35-29.21-3-3.08-2.51-6.85.56-9.8,2.89-2.79,6.54-3.12,9.44-.32,9.93,9.6,19.66,19.39,29.33,29.23C332,275.71,332.28,277.57,333.3,280Z"/><path class="cls-1" d="M136.65,83.18c-1.9,2.07-3.33,5-5.34,5.46-2.46.59-6.15,0-8-1.55-5.65-4.82-10.68-10.38-16-15.66-4-4-8-7.9-11.93-12C92.14,56,92,51.73,94.92,48.81s7.33-2.91,10.63.35q14,13.79,27.74,27.82C134.68,78.4,135.28,80.58,136.65,83.18Z"/><path class="cls-1" d="M326.3,46.06c1.78,1.43,4.68,2.63,5.39,4.62.8,2.26.64,6.15-.82,7.72-9.41,10-19.21,19.69-29.08,29.27-3.05,3-6.75,2.69-9.78-.32-2.85-2.84-3.32-6.52-.56-9.4,9.64-10,19.54-19.82,29.46-29.58C322,47.32,323.84,47.07,326.3,46.06Z"/><path class="cls-1" d="M359.15,235.86c-1.23-.43-2.83-.87-4.35-1.5-11.15-4.67-22.31-9.34-33.44-14.09-5.19-2.22-7.1-5.9-5.43-10.1,1.6-4,5.88-5.43,10.89-3.34,11.62,4.85,23.2,9.8,34.8,14.7,3.81,1.6,5.93,4.31,5.07,8.54C365.93,233.83,363.24,235.53,359.15,235.86Z"/><path class="cls-1" d="M260.71,63.9c-6.59-.12-10.26-4.69-8.43-9.25,5.11-12.75,10.48-25.41,16-38,1.72-3.94,5.38-5,9.22-3.5s5.56,5,4,8.94C276.31,34.83,271,47.51,265.39,60,264.49,62.05,261.64,63.17,260.71,63.9Z"/><path class="cls-1" d="M367.63,108.11c-1,1.1-2.4,4.1-4.69,5.11-12,5.26-24.2,10.12-36.41,14.92-4.57,1.79-8.42.1-10-3.8s.05-7.68,4.6-9.58c11.8-4.91,23.62-9.77,35.52-14.45C362.62,98,367.42,100.81,367.63,108.11Z"/><path class="cls-1" d="M259.47,269.78c1.12,1.11,3.92,2.72,4.95,5.09,5.24,12,10.09,24.14,14.9,36.3,1.74,4.39-.1,8.52-3.9,9.85-4,1.42-7.76-.28-9.59-4.71q-7.29-17.69-14.36-35.46C249.12,274.9,252.27,269.6,259.47,269.78Z"/><path class="cls-1" d="M175,55.68c-.18,4.46-2.27,6.89-5.9,7.61s-6.53-1.12-8-4.5C157.66,50.56,154.37,42.25,151,34c-1.56-3.83-3.21-7.62-4.64-11.5-1.68-4.58-.23-8.6,3.46-10.17,4.06-1.73,8,0,9.94,4.73,4.89,11.77,9.66,23.58,14.43,35.4A19.89,19.89,0,0,1,175,55.68Z"/><path class="cls-1" d="M205.66,26.91c0-6.32-.07-12.64,0-19,.08-5,2.72-7.89,7-7.95s7.23,2.77,7.29,7.72q.23,19.46,0,38.91c-.05,5.19-3.17,8.19-7.57,8-4.14-.2-6.64-3.16-6.71-8.25C205.59,39.88,205.66,33.39,205.66,26.91Z"/><path class="cls-1" d="M352.11,173.84c-6.31,0-12.63.08-18.95,0-5.19-.09-8.44-3-8.45-7.18s3.19-7.08,8.4-7.11q19-.11,37.91,0c5.52,0,8.31,2.55,8.32,7.08s-2.83,7.11-8.27,7.21C364.75,173.93,358.43,173.84,352.11,173.84Z"/></g></g></svg>