<svg width="95px" height="95px" xmlns="http://www.w3.org/2000/svg" viewBox="0 0 331.73 362.61"><defs><style>.cls-1{fill:#233a88;}</style></defs><g id="Слой_2" data-name="Слой 2"><g id="Шар_1" data-name="Шар 1"><path class="cls-1" d="M202.64,74.13c4.11,1.84,8.13.31,10.12-4.39,5.5-13,11-26,16-39.16.93-2.4,1.35-5.12,0-7-5.16-5.4-11.08-4.1-13.57,1.77Q207,44.6,199.27,64C197.38,68.72,198.77,72.39,202.64,74.13Z"/><path class="cls-1" d="M265.7,137c1.79,4.35,5.74,5.52,11.36,3.21q18.19-7.44,36.34-15c1.51-.63,8.52-3,5.39-11-1.59-4.1-5.58-4.83-9.74-3.11-12.57,5.2-25.16,10.35-37.71,15.59C265.7,129,263.86,132.53,265.7,137Z"/><path class="cls-1" d="M212.67,292.19c-1.66-3.85-5.26-5.21-9.2-3.54s-5.74,5.05-4.18,9q8.18,20.6,17,40.92c2,4.48,7.95,4.91,12.58.16,1.41-1.52,1.29-4,.48-6C224.07,319.09,218.46,305.6,212.67,292.19Z"/><path class="cls-1" d="M315.23,238.21c-13.09-5.68-26.3-11.07-39.55-16.36a7,7,0,0,0-9.48,4,7.15,7.15,0,0,0,4,9.49c13.13,5.58,26.3,11.09,39.6,16.25,2.22.86,5,.79,6.48-.27C321.34,246.36,320.47,240.48,315.23,238.21Z"/><path class="cls-1" d="M165.84,276.49A97.8,97.8,0,0,0,227,248.25c36.5-36.38,36.1-97.54-.86-134.76A93.48,93.48,0,0,0,165.83,86c0-19.3-.08-59.66-.19-77.32,0-5.25-3.15-8.74-7.28-8.66h-.16c-4.85-.13-7.57,3.23-7.57,9.58,0,15.3,0,30.6.05,45.9,0,2.94-.07,5.87-.11,9.56-2.24-1.12-3.86-1.87-5.43-2.72q-16.66-9-33.31-18.12c-1.31-.72-2.63-1.44-4-2.08-4.4-2.08-8.36-1.08-10.4,2.57-2.18,3.9-.93,8,3.59,10.45,15.15,8.34,30.32,16.66,45.61,24.75,3.12,1.65,4.12,3.51,4.1,7-.14,25.44-.05,50.89-.05,76.33,0,1.43-.17,2.87-.3,4.82a32.43,32.43,0,0,1-3-1.31c-23-13.06-46-26.09-68.87-39.35-1.51-.87-2.74-3.61-2.73-5.47.12-17.13.57-34.26.88-51.39.11-6-2.47-9.24-7.21-9.38S62,64.17,61.83,70.18c-.23,9.64-.35,19.29-.54,28.94-.11,5.89-.26,11.78-.41,18.33-2.6-1.45-4.49-2.48-6.35-3.54C40.66,106,26.83,98,12.88,90.28c-2.2-1.22-5.33-2.55-7.35-1.85C3.17,89.25,0,92.24,0,94.28a10.72,10.72,0,0,0,4.42,7.89c14.53,8.74,29.39,16.94,44.12,25.34,1.48.84,2.89,1.8,4.93,3.09-2.7,1.58-4.58,2.64-6.42,3.77Q29.82,145,12.62,155.7c-4.35,2.71-5.65,6.83-3.48,10.55s6.43,4.64,10.85,2.19c1-.56,2-1.2,3-1.81,13.9-8.57,27.84-17.09,41.68-25.77,2.58-1.62,4.53-1.68,7.24-.13,22.34,12.85,44.79,25.53,67.19,38.28a37.54,37.54,0,0,1,3.26,2.38,14.27,14.27,0,0,1-1.76,1.57c-23.14,13.6-46.25,27.23-69.5,40.62-1.38.8-4.2.32-5.74-.59-14.94-8.74-29.72-17.71-44.58-26.56-4.85-2.88-8.94-2.16-11.3,1.77s-.89,8,3.7,10.81c7.37,4.51,14.79,9,22.19,13.42L54.1,233.7,32.28,246.49C22.94,252,13.55,257.39,4.3,263c-3.83,2.33-4.87,6.51-3,9.92,1.92,3.57,6.18,4.67,10.41,2.61,1.35-.65,2.62-1.46,3.91-2.22l38.83-22.75,7-4.09c.19,2.88.37,4.65.42,6.43.42,13.79.77,27.59,1.26,41.38.2,5.43,3.25,8.55,7.75,8.39s7.09-3.35,6.94-9.1c-.44-16.79-.89-33.58-1.57-50.36-.15-3.76.8-6,4.23-8,22.1-12.72,44.06-25.68,66.09-38.54,1.09-.63,2.3-1,3.78-1.72.16,1.26.35,2.05.36,2.84,0,26.44.11,52.89-.12,79.33,0,1.87-2,4.47-3.77,5.46-15,8.38-30.15,16.42-45.2,24.67-4.75,2.61-6.24,6.87-4.14,10.79s6.42,4.7,11.26,2.07c11-6,21.92-12,32.91-18,2.73-1.48,5.57-2.75,9-4.44,0,3.26.08,5.71.08,8.17,0,16-.07,31.93,0,47.9,0,5.6,3.1,8.94,7.63,8.8,4.13.08,7.25-3.41,7.28-8.66C165.75,336.26,165.84,279.16,165.84,276.49ZM217,124.68c31.32,31.66,30.52,83.09-1.78,115a79.23,79.23,0,0,1-49.33,22.69c0-45.11,0-114.89,0-162A82.73,82.73,0,0,1,217,124.68Z"/><path class="cls-1" d="M323.91,174.11c-13.6,0-27.21,0-40.81,0-6.11,0-9.16,2.59-9.16,7.42s3.2,7.29,9.28,7.3c13.11,0,26.21-.1,39.32,0,7.65,0,9.19-3.73,9.19-8.15S328.4,174.11,323.91,174.11Z"/><path class="cls-1" d="M252.32,264c-3.79-3.75-9-4.82-12.25-.82-2.77,3.42-2.36,7,.8,10.19,9.56,9.67,19.09,19.39,28.68,29,4.31,4.33,8.28,4.7,11.71,1.32s2.94-7.4-1.32-11.74C270.76,282.57,261.63,273.17,252.32,264Z"/><path class="cls-1" d="M252.24,98.05q14-13.85,27.84-27.76c1.16-1.16,5.51-7.53.76-12.26-3.12-3.11-7-2.33-10.18.85-9.63,9.61-19.29,19.18-28.89,28.83-4.31,4.33-4.66,8.3-1.26,11.72S247.92,102.33,252.24,98.05Z"/></g></g></svg>