<svg width="64px" height="65px" xmlns="http://www.w3.org/2000/svg" viewBox="0 0 63.26 64.04"><defs><style>.cls-1{fill:#273b7d;}.cls-2{fill:#499fdd;}</style></defs><g id="Слой_2" data-name="Слой 2"><g id="Шар_1" data-name="Шар 1"><path class="cls-1" d="M23.08,53.23H12.33V40.38c0-2.74,1.05-4.22,3.41-4.51h7.38a8,8,0,0,1,8.64,7.32,7.5,7.5,0,0,1,0,1.34c0,5.48-3.31,8.74-8.64,8.74ZM12.31,18.48V15.11c0-2.95,1.26-4.38,4-4.55h5.52c4.72,0,7.59,2.82,7.59,7.58,0,3.59-1.94,7.8-7.38,7.8H12.35ZM36.84,31.34l-1.94-1.1,1.68-1.47a15.53,15.53,0,0,0,5.27-12.12C41.85,6.53,34,0,21.9,0H6.51A6.74,6.74,0,0,0,0,6.68V64H22.17c13.49,0,22.17-7.33,22.17-18.71,0-6.11-2.8-11.38-7.55-14"/><path class="cls-2" d="M47.84,56.31A7.71,7.71,0,1,1,55.53,64a7.7,7.7,0,0,1-7.69-7.73"/></g></g></svg>