<svg xmlns="http://www.w3.org/2000/svg" viewBox="0 0 44.62 44.61"><g id="Слой_2" data-name="Слой 2"><g id="Слой_1-2" data-name="Слой 1"><g id="_3-Sending_Call" data-name="3-Sending Call"><path fill="#fff" d="M42.46,33,36,28.45a5,5,0,0,0-7,1.24l-1.51,2.15a55.66,55.66,0,0,1-8-6.73,55.66,55.66,0,0,1-6.73-8l2.15-1.51a5,5,0,0,0,1.24-7L11.64,2.15A5,5,0,0,0,5.92.28a9,9,0,0,0-1.68.83l-.9.63a6.64,6.64,0,0,0-.63.56A9,9,0,0,0,.41,6.41C-1.46,13.4,3.16,24,11.9,32.71c7.34,7.34,16.16,11.9,23,11.9h0a12.78,12.78,0,0,0,3.29-.41,9,9,0,0,0,4.1-2.3,6.7,6.7,0,0,0,.59-.67l.63-.9a9.24,9.24,0,0,0,.8-1.64A4.92,4.92,0,0,0,42.46,33Z"/><path fill="#fff" d="M28.27,22a1,1,0,0,0,.71.29,1.05,1.05,0,0,0,.71-.29l6.36-6.37,2.46,2.47a1,1,0,0,0,1.09.21,1,1,0,0,0,.62-.92v-12a1,1,0,0,0-1-1h-12A1,1,0,0,0,26.3,5a1,1,0,0,0,.21,1.09L29,8.56l-6.36,6.36a1,1,0,0,0,0,1.42Z"/></g></g></g></svg>