<svg width="25px" height="25px" xmlns="http://www.w3.org/2000/svg" viewBox="0 0 485.9 486"><defs><style>.cls-1{fill:#29aae1;}</style></defs><g id="Слой_2" data-name="Слой 2"><g id="Layer_1" data-name="Layer 1"><path class="cls-1" d="M378.5,0h-271A107.46,107.46,0,0,0,0,107.5V378.4A107.48,107.48,0,0,0,107.5,486H378.4A107.46,107.46,0,0,0,485.9,378.5v-271A107.31,107.31,0,0,0,378.5,0Zm-37,116.19H305.79c-28,0-33.44,13.32-33.44,32.87v43.08h66.83l-8.7,67.5H272.35V432.84h-69.7V259.65H144.36V192.16h58.29V142.38c0-57.76,35.27-89.22,86.8-89.22,24.69,0,45.91,1.83,52.09,2.66Z"/></g></g></svg>