<svg width="68px" height="108px" xmlns="http://www.w3.org/2000/svg" viewBox="0 0 271.68 429.72"><defs><style>.cls-1{fill:#29aae1;}</style></defs><g id="Слой_2" data-name="Слой 2"><g id="Шар_1" data-name="Шар 1"><path class="cls-1" d="M0,140.6h256.7c.12-2.18.29-3.94.29-5.69q0-50.25,0-100.5c0-13.2-6.45-19.73-19.56-19.74q-101.75,0-203.49,0c-12.76,0-19.29,6.62-19.31,19.48q0,39.26,0,78.5v5.71H.24c-.07-1.59-.2-3-.2-4.5q0-39.75,0-79.5A34,34,0,0,1,34.25,0q102-.08,204,0C256,0,271.62,15.43,271.63,33.16q.11,162.75,0,325.49c0,13.61-7.21,23.27-18.79,29.69-2.91,1.62-4.06,3.28-4,6.56.19,8.32.08,16.66,0,25,0,7.62-2.19,9.81-9.76,9.81l-173,0c-11.5,0-23,0-34.5,0-6.28,0-8.76-2.43-8.83-8.72-.09-8.66-.16-17.33,0-26,.07-3.19-.83-5-3.84-6.6C6.61,381.61,0,371.2,0,356.77Q.09,252,0,147.28Zm14.64,14.68v4.95q0,98.51,0,197c0,13.62,6.2,20.26,19.63,20.28q101.25.15,202.49,0c14.21,0,20.24-6.41,20.24-20.68q0-98.24,0-196.49c0-1.6-.18-3.19-.28-5.05ZM234.21,391.92h-5.46l-127.88,0q-29.48,0-58.95,0c-2.05,0-4.69-.65-4.72,2.78-.05,6.62,0,13.24,0,20.1h197Z"/><path class="cls-1" d="M59,76.91c0,9.15.06,18.3,0,27.45-.06,5.63-2.4,8.37-6.93,8.47-4.78.11-7.29-2.71-7.31-8.57-.05-18.3,0-36.6,0-54.91,0-4,1.54-7.25,5.51-7.65,2.37-.24,5.41,1.1,7.28,2.74,1.28,1.11,1.41,3.94,1.44,6C59.08,59.27,59,68.09,59,76.91Z"/><path class="cls-1" d="M44.73,238.29c0-17.14,0-34.29,0-51.43,0-5,2.81-7.86,7.1-7.85s6.88,2.81,7.11,7.86c.06,1.33,0,2.66,0,4q0,31.47,0,62.93c0,12.15.06,24.3-.09,36.45-.05,4.5-3.1,7.42-7.07,7.42s-6.82-3-7.09-7.43c-.08-1.33,0-2.66,0-4v-48Z"/></g></g></svg>