<svg width="100px" height="100px" xmlns="http://www.w3.org/2000/svg" viewBox="0 0 343.35 228.53"><defs><style>.cls-1{fill:#2caae1;}</style></defs><g id="Слой_2" data-name="Слой 2"><g id="Шар_1" data-name="Шар 1"><path class="cls-1" d="M117.28,188.18h11.36c.07,1.35.18,2.61.18,3.87,0,7,.22,14-.08,21-.15,3.63,1.12,4.36,4.5,4.35,37.65-.11,75.3-.07,113-.07,5.15,0,10.32-.2,15.45.07,3.6.19,4.52-1.21,4.45-4.58-.18-8.72.12-17.45-.15-26.16-.12-3.8,1.25-4.75,4.77-4.58,7.54.35,6.65-.84,6.69,6.93.06,11.63,0,23.26,0,34.88v4.63H0V.09H194.56V11.2H128.92V45.62H117.26V27.53c0-4-.23-7.94,0-11.89.24-3.42-.74-4.55-4.34-4.53-28.14.15-56.28.09-84.42.09-4.1,0-8.21.24-12.28-.08s-5.26.92-5.21,5c.21,18.63.1,37.26.1,55.89q0,16.45,0,32.9c0,1.41.17,2.83.29,4.6h4.66c32.1,0,64.2-.06,96.31.08,3.75,0,5-.89,4.9-4.79-.3-7.64-.09-15.3-.09-23.51a76.33,76.33,0,0,1,9.63.16c.78.1,1.83,2.21,1.85,3.42.15,10.3.09,20.61.09,30.92q0,14.47,0,28.94c0,1.29-.11,2.58-.18,4.08H117.36V121.37h-106c-.09,1.69-.23,3.25-.23,4.81q0,43,0,86c0,5.15,0,5.16,5.32,5.16,32,0,63.94-.08,95.91.11,4.18,0,5.1-1.26,5-5.15C117.08,204.4,117.28,196.49,117.28,188.18Z"/><path class="cls-1" d="M343.35,80.46c-2,3.82-3.1,8-5.75,10.72-24.94,25.31-50.13,50.38-75.31,75.45a12.55,12.55,0,0,1-5,3c-18.52,5.7-37.05,11.36-55.66,16.74-2,.59-5.41.17-6.71-1.17s-1.78-4.78-1.11-6.79c6.33-19,12.94-37.93,19.62-56.83a13.91,13.91,0,0,1,3.46-4.72Q252.43,81.16,288,45.6c7.9-7.9,17.62-9.05,26.19-1.75a221.69,221.69,0,0,1,22.94,22.93C340.16,70.23,341.16,75.42,343.35,80.46ZM279.83,94l8.36,8.48L250,140.36l10.64,10.81,48.18-48.23L278.77,73l-48.32,48.32,11,11.1Zm38.81.54c3.32-3.48,6.66-7,10.05-10.52s3.72-5.47.47-9.14c-4-4.53-8.33-8.8-12.61-13.09-3.44-3.45-6.93-6.87-10.6-10.07-2.06-1.8-4.67-2.89-7.12-.57C294.75,55,290.82,59,287,62.81,297.59,73.43,307.8,83.68,318.64,94.54ZM250.23,159.7l-28-28.42c-3.33,9.61-7.09,19.15-9.66,29-.52,2,3.42,5.24,5.47,7.77a2.78,2.78,0,0,0,2.41.62C230.51,165.72,240.55,162.64,250.23,159.7Z"/><path class="cls-1" d="M238.49,10.59V0h38.66V35.38h-11.1V20.56c0-9.39,0-9.37-9.39-9.39-5.67,0-11.34-.07-17-.12C239.4,11.05,239.17,10.87,238.49,10.59Z"/></g></g></svg>