<svg width="91px" height="87px" xmlns="http://www.w3.org/2000/svg" viewBox="0 0 363.21 345.75"><defs><style>.cls-1{fill:#29aae1;}</style></defs><g id="Слой_2" data-name="Слой 2"><g id="Шар_1" data-name="Шар 1"><path class="cls-1" d="M182,0q77.24,0,154.48,0c15.2,0,26.7,11.22,26.71,26.34q.09,146.51,0,293c0,15.09-11.55,26.37-26.74,26.37q-155,0-310,0C11.4,345.72,0,334.29,0,319.13Q0,172.88,0,26.61C0,11.24,11.49,0,27,0Zm-.35,331.09H336.11c9.82,0,12.55-2.66,12.55-12.35q0-145.77,0-291.54c0-9.88-2.63-12.55-12.35-12.55l-309,0c-10.27,0-12.77,2.44-12.77,12.58q0,145.52,0,291c0,10.21,2.59,12.81,12.6,12.81Z"/><path class="cls-1" d="M291.82,98.42c-1.15,30.49-25.77,56-56.85,58-27.53,1.84-55.2-21.32-59.38-49.69-6.18-42,35.79-77.14,75.71-63.43,5.55,1.91,7.73,5.56,6.06,10.14-1.44,3.93-5.19,5.39-10.51,3.65a44.48,44.48,0,0,0-33.55,2.05c-19.41,9-28.49,31.48-21.81,53.36,6,19.71,26.72,32.42,47.34,29.08,29.07-4.72,44.32-30.69,34.9-58.91a12.23,12.23,0,0,1,1.23-9c.87-1.48,4.88-2.13,7-1.54,2,.54,4.16,3,4.76,5.08C288.8,84.18,290.18,91.34,291.82,98.42Z"/><path class="cls-1" d="M156.06,247.32c-.46,38.72-39.52,67.15-76.19,55.29-3.52-1.14-6.5-2.78-7.06-6.85-.77-5.7,4.49-9.28,10.94-7.18A44.75,44.75,0,0,0,114.1,288c20.85-7.8,31.6-30,25.66-52.76a42.68,42.68,0,0,0-47.85-31.09C63,208.61,47.2,235.44,57.22,263c1.87,5.15.49,9.31-3.61,10.85-4.43,1.67-8-.47-10.09-6.1-11.79-31.36,6.09-66.41,38.84-76.1,31-9.19,65.11,11.5,72.07,43.87C155.27,239.35,155.53,243.36,156.06,247.32Z"/><path class="cls-1" d="M50.3,97A58.66,58.66,0,0,1,50.92,90a7.17,7.17,0,0,1,8.26-6.19c4,.47,6.3,3.76,6.22,8.24-.09,4.79-.6,9.72.28,14.36,3.12,16.43,17.86,26.23,36.33,24.67a31.45,31.45,0,0,0,28.73-30.07c.93-23.48-16.24-38.81-39.37-35.14-5.7.9-9.2-1-9.87-5.52-.71-4.66,1.71-7.47,7.41-8.62,24.35-4.94,50,12.15,55.4,36.87,5.31,24.38-11.15,50.07-35.88,56C79.55,151.6,50,127.91,50.3,97Z"/><path class="cls-1" d="M265.78,250.25c.61-18.69-9.38-32.14-25.51-35.31-17-3.33-32.65,4.82-38.24,19.86-9.49,25.52,10.27,49.47,37.15,45.05,5.6-.92,9.2,1,10.13,5.28s-1.95,7.74-7.28,8.76c-23.42,4.48-46.75-9.55-54.43-32.73-7.2-21.72,3.76-46,25.62-56.74,20.73-10.19,45.69-2.93,59.19,17.28,6.63,10,9.5,20.84,7.49,32.76-1,5.68-4,8.09-8.66,7.37-4.09-.63-6-3.66-5.63-9C265.68,251.66,265.76,250.5,265.78,250.25Z"/><path class="cls-1" d="M316,259.8a11.89,11.89,0,1,1-.12-23.77,11.57,11.57,0,0,1,11.74,11.59C327.75,254.53,322.79,259.73,316,259.8Z"/><path class="cls-1" d="M327.64,292.83A12,12,0,0,1,316,304.62a12.25,12.25,0,0,1-12.13-12,11.82,11.82,0,0,1,12.1-11.84C322.79,280.81,327.71,285.88,327.64,292.83Z"/><path class="cls-1" d="M315.91,215.09a11.83,11.83,0,0,1-12.09-11.86,12.17,12.17,0,0,1,12.11-12A11.91,11.91,0,0,1,327.62,203,11.48,11.48,0,0,1,315.91,215.09Z"/></g></g></svg>