<svg width="77px" height="88px" xmlns="http://www.w3.org/2000/svg" viewBox="0 0 306.15 350.98"><defs><style>.cls-1{fill:#29aae1;}</style></defs><g id="Слой_2" data-name="Слой 2"><g id="Шар_1" data-name="Шар 1"><path class="cls-1" d="M270.73,181.68a10.77,10.77,0,0,0,.59-1.8c.18-17.16,1.75-15.18-14-15.2q-79.75-.08-159.51,0c-1,0-2,0-3,0-4.49-.22-7.42-3-7.48-7s2.7-7,7.31-7.21,9.33-.14,14-.14H252.52c-.69-3.71-1-6.92-1.92-10-5.88-20.44-19.27-35.21-37.55-44.69-46.89-24.33-94.25-24.38-141,.69a76.57,76.57,0,0,0-33.88,36.29c-2.45,5.32-6.08,7-10.18,5.12-4.34-2-5.35-5.94-2.82-11.41,9.57-20.76,25.92-34.76,45.56-45.37C89.62,70.7,110,65.58,131.3,63.78c1.29-.11,2.58-.3,4.55-.53,0-6.46.34-12.78-.06-19C134.27,20.44,155.12-.44,179.75,0c38.32.68,76.66.17,115,.17a39.58,39.58,0,0,1,5,.2c4.3.57,6.59,3.11,6.39,7.45s-2.77,6.7-7.09,6.73c-12.84.09-25.67.07-38.51.07q-41.25,0-82.5,0c-17.23,0-27.72,10.52-27.82,27.77,0,5.5.18,11-.07,16.5-.17,3.67,1.11,4.69,4.8,5,25.83,2.06,50,9.37,71.55,24.13,21,14.37,36.12,32.85,40.39,58.81a5.92,5.92,0,0,0,3.42,3.8c10,3.21,15.74,10.72,15.73,21.12q0,7,0,14c0,8.26-2.11,10.44-10.25,10.45q-27.51,0-55,0-104.5,0-209,0C1.65,196.19,0,194.6,0,184.74c0-4.84-.07-9.67,0-14.51A19.92,19.92,0,0,1,19.19,150.4c9-.32,18-.21,27-.08,5.34.07,8.13,2.88,8,7.48-.13,4.41-2.81,6.78-8,6.83-8.5.09-17,.15-25.5,0-4.47-.08-6.34,1.78-6.29,6.23.14,13.27-1,10.77,10.38,10.79q119.52.12,239,0Z"/><path class="cls-1" d="M88.2,250.83c0-8.81,0-17.63,0-26.44,0-5.33,2.6-8.41,6.93-8.57,4.55-.16,7.56,3,7.59,8.54q.14,26.69,0,53.38c0,5.37-3.23,8.82-7.58,8.66s-6.91-3.35-6.94-8.63C88.17,268.79,88.21,259.81,88.2,250.83Z"/><path class="cls-1" d="M233.21,316.43c0,8.65,0,17.3,0,25.95,0,5.43-2.5,8.43-6.88,8.59-4.59.17-7.42-2.83-7.45-8.53q-.15-25.95,0-51.9c0-5.64,2.91-8.81,7.4-8.66,4.34.14,6.85,3.17,6.89,8.59.07,8.65,0,17.3,0,26Z"/><path class="cls-1" d="M88.19,325.18c0-5.84-.08-11.67,0-17.51.08-5,2.69-7.84,7-7.95s7.38,2.71,7.46,7.6q.27,18,0,36c-.08,4.83-3.25,7.58-7.61,7.42s-6.79-2.91-6.86-8.06c-.07-5.84,0-11.67,0-17.5Z"/><path class="cls-1" d="M59,241.63c0,5.82.09,11.64,0,17.45-.1,4.76-2.57,7.44-6.72,7.68-4.33.25-7.63-2.48-7.71-7.27q-.31-18.19,0-36.4a7,7,0,0,1,7.3-7.27c4.23,0,7,3,7.11,7.86.1,6,0,12,0,17.95Z"/><path class="cls-1" d="M233.2,242.93c0,6,.06,12,0,18-.07,5.07-2.62,7.86-7,7.91s-7.22-2.63-7.28-7.67q-.24-18.74,0-37.47c.06-4.83,3.17-7.89,7.26-7.81s6.94,3.27,7,8.07C233.28,230.27,233.2,236.6,233.2,242.93Z"/><path class="cls-1" d="M175.27,326.87c0-5.48-.08-11,0-16.44.09-4.89,2.81-7.74,7.14-7.78s7.32,2.79,7.38,7.61q.21,16.44,0,32.88c-.05,4.83-3,7.79-7.21,7.82-4.47,0-7.27-3-7.36-8.15s0-10.63,0-15.94Z"/><path class="cls-1" d="M146.08,238.59c0,5,.09,10,0,15-.11,4.53-2.86,7.55-6.8,7.78a7.12,7.12,0,0,1-7.49-7.12c-.26-10.49-.28-21,0-31.49a6.88,6.88,0,0,1,7.58-6.94c4,.2,6.6,3.14,6.69,7.78C146.16,228.58,146.08,233.59,146.08,238.59Z"/><path class="cls-1" d="M146.08,293.57c0,4.16,0,8.31,0,12.47,0,4.37-2.42,6.82-6.57,7.39a6.92,6.92,0,0,1-7.7-6.78c-.3-8.8-.31-17.63,0-26.42.18-4.51,3.53-6.94,7.79-6.52s6.36,3.14,6.44,7.39c.05,2.16,0,4.32,0,6.48,0,2,0,4,0,6Z"/><path class="cls-1" d="M59,332.12c0,3.82.1,7.65,0,11.47-.14,4.29-2.42,6.81-6.77,7.08s-7.26-2.24-7.48-6.33c-.43-8-.38-16,0-23.92a6.71,6.71,0,0,1,7.79-6.6c4.28.46,6.46,3,6.54,7.33,0,1.82,0,3.65,0,5.48v5.49Z"/><path class="cls-1" d="M175.25,272.17c0-3.65-.12-7.3,0-10.94.18-4.45,3.06-7.35,7.07-7.44a7.1,7.1,0,0,1,7.41,7.13c.25,7.46.25,14.94,0,22.39a7.22,7.22,0,0,1-7.58,7c-3.92-.23-6.75-3.29-6.9-7.7C175.14,279.15,175.24,275.66,175.25,272.17Z"/><path class="cls-1" d="M175.25,228.38c0-1.83-.09-3.66,0-5.48.25-4,2.42-6.56,6.4-7s7.16,1.58,7.67,5.46a56.72,56.72,0,0,1,0,14.32c-.46,3.71-3.55,5.64-7.28,5.38-3.93-.28-6.39-2.62-6.73-6.69-.16-2,0-4,0-6Z"/><path class="cls-1" d="M146.08,338c0,2,.08,4,0,6-.21,4.38-2.64,6.8-6.94,6.92-4.06.12-6.86-2-7.17-6.1a84.62,84.62,0,0,1,.07-14c.38-4.05,3.19-6.17,7.28-6s6.41,2.53,6.74,6.61C146.23,333.61,146.09,335.79,146.08,338Z"/><path class="cls-1" d="M59,290.87c0,1.49.59,3.42-.12,4.39-1.7,2.33-3.84,5.6-6.12,5.89S46.19,299,45.57,297c-1.17-3.92-.9-8.51-.2-12.65.59-3.48,3.79-4.88,7.34-4.5a6.55,6.55,0,0,1,6.22,6.06,34.43,34.43,0,0,1,0,5Z"/></g></g></svg>