<svg width="75px" height="90px" xmlns="http://www.w3.org/2000/svg" viewBox="0 0 245.67 294.26"><defs><style>.cls-1{fill:#2caae1;}</style></defs><g id="Слой_2" data-name="Слой 2"><g id="Шар_1" data-name="Шар 1"><path class="cls-1" d="M233.73,79.55H8.45C1.81,79.54,0,77.76,0,71.13Q0,48.95,0,26.75C0,11.55,11.25.12,26.41.11Q96.94.05,167.47.09c16.91,0,33.82.33,50.72-.08,16.73-.4,27.54,14.18,27.48,27.44-.37,80.17-.17,160.34-.18,240.51a25.9,25.9,0,0,1-26.39,26.28q-88.36,0-176.72,0c-7.12,0-14.31.25-21.35-.6C9.72,292.26.06,281,.05,269.69q-.12-84.6,0-169.19c0-.9.1-1.8.17-3H11.59V102q0,82.41.07,164.83a23.62,23.62,0,0,0,1.72,9.55c2.3,5,7.1,6.31,12.29,6.31l91.53,0H219c7.95,0,12.7-3,14.35-9.22a18.44,18.44,0,0,0,.48-4.7q0-92.91,0-185.83C233.89,82.07,233.81,81.16,233.73,79.55Zm-.08-11.72c.1-1.44.24-2.47.24-3.5,0-13.07,0-26.15,0-39.22,0-8.51-5-13.47-13.66-13.47q-97.45-.06-194.92,0c-8.84,0-13.63,5-13.66,13.84q-.06,19.22,0,38.43c0,1.26.16,2.52.25,3.91Z"/><path class="cls-1" d="M122.67,251.29c-38,.21-70.94-32.67-71.11-71-.17-37.84,32.4-70.93,70.07-71.19,38.86-.26,72.2,32.08,72.3,70.15C194,218.41,161.72,251.08,122.67,251.29ZM63.55,175.34c1-.37,1.57-.55,2.13-.84,18.91-9.86,36.85-8.39,54.41,3.75a77,77,0,0,0,19.35,9.62c15,5,28.94,2.25,40.75-8.72a6.07,6.07,0,0,0,1.81-4.71c-1.33-6.42-2.33-13.09-4.93-19-11.4-26.06-39.84-39.89-67.71-33.48C83.43,127.9,64.62,149.6,63.55,175.34Zm117.31,18.43c-1.59.81-2.42,1.19-3.22,1.64-11.06,6.23-22.82,7.73-35.18,5.25-11.18-2.24-21.11-7.21-30.42-13.67-12.56-8.71-26-10.2-39.55-3-11.18,6-9.66,4.41-6.2,15.33,11.88,37.45,55.12,50.39,86.64,32.5C167.53,223.56,176.61,210.94,180.86,193.77Z"/><path class="cls-1" d="M61.46,44.81c-5.68,0-11.36,0-17,0-4.19,0-6.55-2.15-6.57-5.71s2.37-5.81,6.5-5.84q17-.11,34.07,0c4.31,0,7,2.46,6.89,6s-2.7,5.55-6.82,5.58C72.82,44.85,67.14,44.81,61.46,44.81Z"/><path class="cls-1" d="M184.55,39a8.82,8.82,0,0,1,8.92-9,9,9,0,1,1,0,18.06A8.78,8.78,0,0,1,184.55,39Z"/><path class="cls-1" d="M167.89,39A8.78,8.78,0,0,1,159,48,9,9,0,1,1,159,30,8.8,8.8,0,0,1,167.89,39Z"/></g></g></svg>