<svg width="114px" height="74px" xmlns="http://www.w3.org/2000/svg" viewBox="0 0 453.57 296.07"><defs><style>.cls-1{fill:#29aae1;}</style></defs><g id="Слой_2" data-name="Слой 2"><g id="Шар_1" data-name="Шар 1"><path class="cls-1" d="M227.31,247.1H442.78c10.3,0,12.74,3.55,9.37,13.34C449,269.49,445,278,438.26,285a34.44,34.44,0,0,1-25.89,11q-184.48,0-369,.09c-16.36,0-27.59-7.47-35.28-21.06A119,119,0,0,1,.62,257.64c-2.22-6,1.74-10.88,8.24-10.87q109.23,0,218.45,0ZM18.22,261.86c3.3,12.27,12.32,19.45,24.16,19.45l369,0c11.73,0,20.94-7.36,24.12-19.47Z"/><path class="cls-1" d="M55.91,224.71c-14.34,1.76-14.34,1.76-14.34-11.52,0-58.84.4-117.68-.21-176.52C41.14,15.49,59-.09,78.29,0c99.66.48,199.32.22,299,.23,19.64,0,34.8,15.13,34.81,34.81q.06,92,0,184v5.76h-14c-.1-1.64-.3-3.39-.3-5.14q0-89,0-178c0-2.83.12-5.67-.05-8.5-.72-11.77-7.55-18.27-19.34-18.28q-61.75-.06-123.49,0H77.42c-15.05,0-21.5,6.49-21.51,21.7q0,90.76,0,181.52Z"/><path class="cls-1" d="M330.06,90.77,319.92,100c-49.39-55.28-138.08-52.89-186-.19l-10.11-9.32C174.78,32,273.42,27.76,330.06,90.77Z"/><path class="cls-1" d="M307.35,122.06l-11.2,8.75c-17.86-21.93-40.78-33.59-69-33.71s-51.28,11.17-69.6,33.31c-2-1.53-3.75-2.91-5.53-4.31l-5.42-4.34C184.2,71.86,264.34,67.54,307.35,122.06Z"/><path class="cls-1" d="M196.89,185.36c.13-15.52,15-30.22,30.31-30,15.52.27,29.8,15,29.63,30.62-.17,15.24-14.93,29.83-30,29.71C211.25,215.61,196.77,200.89,196.89,185.36Zm14.58,0c-.06,9.71,5.76,15.72,15.33,15.8,9.29.07,15.32-5.83,15.45-15.15.14-9.82-5.53-15.85-15.07-16S211.52,175.76,211.47,185.37Z"/><path class="cls-1" d="M273.3,159.84c-19.94-35.59-72.55-36.78-93.05-.55l-12.48-6.93c13.56-20.79,31.8-33.22,56.42-34.08,27-1,47,11.86,61.81,34.46Z"/></g></g></svg>