<svg width="96px" height="77px" xmlns="http://www.w3.org/2000/svg" viewBox="0 0 383.28 305.19"><defs><style>.cls-1{fill:#29aae1;}</style></defs><g id="Слой_2" data-name="Слой 2"><g id="Шар_1" data-name="Шар 1"><path class="cls-1" d="M340.38,290.56v-16.2h-7.06q-120,0-240-.08c-4.14,0-5.58,1.2-5.36,5.36.3,5.63.13,11.3,0,16.95-.1,6.06-2.5,8.51-8.45,8.54q-21.45.08-42.91,0c-5.16,0-8.39-2.89-8.39-7.19s3.25-7.27,8.37-7.33c10.15-.11,20.29,0,30.44,0h6.54c0-4.89.27-9.35-.2-13.74-.11-1-2.81-2.34-4.33-2.36-11.31-.2-22.65-.62-33.92,0C16,275.58-.51,257.54,0,239.13c.82-28.75.18-57.54.2-86.31C.23,133,15.08,118.09,34.79,118q12-.06,23.94,0c19.57.17,34.33,14.77,34.73,34.3.19,9.35.19,9.35,9.63,9.35H290c0-3.33,0-6.24,0-9.14.31-19.8,15.16-34.43,35-34.51,8.15,0,16.3-.06,24.45,0a34,34,0,0,1,33.76,34.1q0,43.91,0,87.81c0,15.4-9.32,28.57-23.91,33.09-3.52,1.08-4.29,2.69-4.17,5.94.21,6,.15,12,0,18-.1,5.49-2.83,8.22-8.38,8.24q-21.71.11-43.41,0c-5,0-7.84-2.72-8-7-.12-4.49,2.87-7.48,8-7.53C315.61,290.49,327.73,290.56,340.38,290.56ZM79,217v-6c0-19.78,0-39.57,0-59.36,0-11.44-6.58-18.78-17.28-19.08-10-.27-20-.31-29.93,0s-16.79,7-16.85,16.74q-.25,46.89,0,93.78c0,9.68,6.57,16.09,16.34,16.59,6,.31,12,.19,18,.19H235.24c38.24,0,76.48.09,114.72-.09,12.59-.06,18.68-6.4,18.72-18.86q.13-44.9,0-89.79c0-11.82-6.81-18.5-18.62-18.63-8.15-.09-16.3,0-24.44,0-14.67,0-21.09,6.34-21.11,20.89,0,19.46,0,38.91,0,58.37,0,1.74-.19,3.48-.29,5.25Zm210.78-40.43H93.9v25.64H289.76Z"/><path class="cls-1" d="M328,97H313.76V91.42q0-28.19,0-56.37c0-13.9-6.53-20.42-20.5-20.43q-102,0-204,0c-12.52,0-19.37,6.83-19.44,19.46-.1,19,0,37.92,0,56.88v5.92H55.5c-.11-1.22-.33-2.49-.33-3.75,0-19.46-.1-38.92,0-58.37A34.41,34.41,0,0,1,90,0Q192,0,294.05,0c18.06,0,34,15.07,34.21,32.81.29,20.62.07,41.24.06,61.86A21.61,21.61,0,0,1,328,97Z"/></g></g></svg>