<svg width="111px" height="83px" xmlns="http://www.w3.org/2000/svg" viewBox="0 0 443.01 332.12"><defs><style>.cls-1{fill:#29aae1;}</style></defs><g id="Слой_2" data-name="Слой 2"><g id="Шар_1" data-name="Шар 1"><path class="cls-1" d="M359.42,201.62c0-13.55,0-26.67,0-39.8,0-6.37-.56-6.95-6.77-6.95q-131.25,0-262.5,0c-6,0-6.53.57-6.54,6.63,0,13.28,0,26.56,0,39.58-.67.44-.94.77-1.21.77-19.12,0-38.32,1.16-57.34-.26-12.77-.95-19.73-11.27-23.8-22.85a27,27,0,0,1-1.17-8.83Q0,102,0,34.15C.05,13.88,13.78.09,34.21.06q91.08-.15,182.15,0,96.57,0,193.13.05c16.4,0,29.32,10.23,32.85,25.86a32.66,32.66,0,0,1,.64,6.92q0,68.38,0,136.76c0,14-7.21,23.83-19.06,30.47a16.36,16.36,0,0,1-7.61,1.92c-18.13.15-36.27.08-54.4.05A17.69,17.69,0,0,1,359.42,201.62ZM69,187.5c0-8.73,0-16.86,0-25,0-13.51,8.62-22.2,22-22.2,86.81,0,173.63.18,260.44-.23,12.1,0,23.59,10,22.71,22.85-.55,8.05-.1,16.18-.1,24.86h6.5c10,0,20-.05,29.94,0,12.47,0,17.91-5.26,17.92-17.78q0-68.12,0-136.23c0-13.57-5.83-19.35-19.49-19.35H34.23c-13.95,0-19.63,5.71-19.64,19.7q0,60.87,0,121.75c0,5.82-.15,11.66.17,17.46.41,7.31,5.24,13.87,11.17,14C40,187.78,54.12,187.5,69,187.5Z"/><path class="cls-1" d="M315.32,293.33c0,10.7.07,20.29-.07,29.87,0,1.89-.28,4.56-1.48,5.48-2,1.54-5.45,3.29-7.28,2.53-2.36-1-5.05-4.22-5.29-6.71-.72-7.42-.31-14.94-.34-22.42v-8.44c-3.19,1.71-5.62,2.94-8,4.28-5.76,3.3-11.48,6.68-17.26,10-5.08,2.89-9.05,2.38-11.38-1.35-2.43-3.9-.93-8.24,4-11.13,6.73-3.95,13.52-7.79,20.27-11.71,1.4-.81,2.72-1.76,4.75-3.08-5.83-3.42-11.05-6.5-16.28-9.54-3.16-1.84-6.39-3.55-9.5-5.47-4.18-2.57-5.49-7-3.32-10.57,2.08-3.43,6.27-4.35,10.54-2,8.37,4.66,16.64,9.5,25.78,14.75.17-2.55.37-4.26.38-6,0-7.82-.07-15.63,0-23.44.09-5.71,2.82-8.68,7.48-8.54,4.5.13,6.9,2.95,6.94,8.47.07,8,0,16,0,23.94,0,1.59.14,3.18.26,5.73l18.25-10.5c2.44-1.41,4.85-2.89,7.32-4.24,4.78-2.61,9.16-1.74,11.25,2.16s.72,7.68-3.85,10.37c-7,4.13-14.1,8.13-21.14,12.2-1.27.73-2.48,1.57-4.43,2.81,4.59,2.67,8.69,5.07,12.8,7.45,4.45,2.59,9,5.08,13.34,7.78,4.16,2.56,5.29,6.51,3.16,10.15s-6.12,4.72-10.37,2.36c-6.38-3.54-12.67-7.27-19-10.92C320.79,296.4,318.62,295.2,315.32,293.33Z"/><path class="cls-1" d="M340.06,188.31v13.38H103.11V188.31Z"/><path class="cls-1" d="M225.61,264.66c-.21,8.48-2.47,14.66-8.37,18.71-2.77,1.9-3.17,3.76-2.45,6.65q4,15.93,7.74,31.91c1.25,5.23-.52,8.82-4.69,9.87-4.61,1.15-7.92-1.1-9.28-6.51C206,315,203.2,304.75,201,294.38c-1.95-9.1.1-17.06,8-23a6.53,6.53,0,0,0,2-5.3c-1.37-8-3.24-15.92-4.91-23.87a27.86,27.86,0,0,1-.91-5.39c-.05-4,2-6.71,6-7.44,3.75-.69,6.42,1.22,7.92,4.61a20.85,20.85,0,0,1,1.11,4.33C222.11,247.55,224,256.8,225.61,264.66Z"/><path class="cls-1" d="M121.82,264.23c-.28,9-2.46,15.08-8.2,19-2.91,2-3.34,3.94-2.54,7.07,2.71,10.61,5.23,21.26,7.75,31.9,1.15,4.85-.65,8.43-4.61,9.53-4.59,1.27-8.06-1-9.4-6.29-2.6-10.29-5.34-20.55-7.58-30.91-2-9.3,0-17.39,8.17-23.39,1.28-.94,2-3.73,1.75-5.44-1.35-7.84-3.16-15.6-4.78-23.39a33.62,33.62,0,0,1-1-5.38c-.18-4.05,1.9-6.75,5.78-7.58,3.72-.79,7,.91,7.93,4.43C117.8,244.57,119.93,255.47,121.82,264.23Z"/><path class="cls-1" d="M173.76,264.52c-.42,8.89-2.64,14.92-8.39,18.84-2.76,1.88-3.21,3.71-2.47,6.64,2.67,10.61,5.21,21.26,7.76,31.9,1.24,5.17-.53,8.8-4.69,9.9-4.56,1.2-7.9-1-9.29-6.48-2.65-10.44-5.45-20.86-7.68-31.4-1.9-8.95.39-16.67,8-22.55,1.37-1.06,2.28-3.95,2-5.76-1.27-7.68-3.08-15.27-4.68-22.9a35.14,35.14,0,0,1-1-5.88c-.11-4,2-6.71,5.93-7.46,3.74-.71,7,1,7.85,4.59C169.73,244.73,171.85,255.62,173.76,264.52Z"/><path class="cls-1" d="M401.08,69.7V83.83h-6q-173.61,0-347.2.13c-5.26,0-6.81-1.58-6.21-6.47a66.74,66.74,0,0,0,0-7.79Z"/><path class="cls-1" d="M42.17,50c-1.66-14-1.66-14,11.55-14q170.61,0,341.21-.1c4.88,0,7.2,1,6.42,6.28-.36,2.41-.06,4.92-.06,7.79Z"/><path class="cls-1" d="M388.31,127a10.7,10.7,0,0,1-.47-21.4c5.65-.21,10.94,5,10.94,10.72A11.1,11.1,0,0,1,388.31,127Z"/></g></g></svg>