<?xml version="1.0" encoding="utf-8"?>
<!-- Generator: Adobe Illustrator 24.0.1, SVG Export Plug-In . SVG Version: 6.00 Build 0)  -->
<svg width="105px" height="105px" version="1.0" id="Шар_1" xmlns="http://www.w3.org/2000/svg" xmlns:xlink="http://www.w3.org/1999/xlink" x="0px" y="0px"
	 viewBox="0 0 390 390" style="enable-background:new 0 0 390 390;" xml:space="preserve">
<style type="text/css">
	.st0{fill:#29aae1;}
</style>
<g>
	<path class="st0" d="M248.89,223.88c0-9.77,0-18.97,0-28.48c3.92,0,7.52,0,11.65,0c0,5.26,0,10.5,0,15.73
		c0,5.68,0.02,11.36,0,17.04c-0.01,5.25-1.91,7.19-7.09,7.2c-12.02,0.02-24.04,0.08-36.06-0.06c-3-0.04-4.18,0.72-4.17,3.94
		c0.1,31.31,0.06,62.63,0.07,93.94c0,1.15,0.2,2.31,0.34,3.8c9.9,0,19.52,0,29.14,0c3.83,0,7.66-0.05,11.49,0.02
		c3.99,0.07,6.28,2.11,6.37,5.5c0.09,3.58-2.24,5.99-6.34,6.03c-10.7,0.11-21.4,0.04-32.1,0.04c-30.91,0-61.82,0.01-92.73-0.06
		c-1.78,0-4.19-0.08-5.19-1.16c-1.39-1.51-2.47-4.04-2.35-6.05c0.18-2.98,2.69-4.31,5.69-4.31C139.11,337,150.6,337,162.1,337
		c1.57,0,3.15,0,5.12,0c0-33.85,0-67.42,0-101.61c-1.6,0-3.13,0-4.65,0c-32.36,0-64.73-0.03-97.09,0.07
		c-3.5,0.01-5.92-1.1-8.09-3.86c-11.78-14.94-23.7-29.75-35.56-44.62c-2.95-3.69-2.99-5.89-0.09-9.53
		c12.01-15.09,24-30.19,36.16-45.16c1.27-1.57,3.61-3.18,5.47-3.21c15.98-0.24,31.96-0.12,47.94-0.09c0.37,0,0.75,0.22,1.38,0.42
		c0,3.43,0,6.91,0,10.88c-2.75,0-5.35,0-7.96,0c-11.62,0-23.25-0.07-34.87,0.08c-1.67,0.02-3.95,0.55-4.9,1.7
		c-10.79,13.17-21.38,26.5-32.21,40.03c6.44,8.08,12.75,16.02,19.08,23.95c4.04,5.06,7.95,10.23,12.21,15.09
		c1.2,1.37,3.42,2.61,5.18,2.62c45.84,0.1,91.68,0.02,137.52,0c12.28-0.01,24.57,0.08,36.85,0.12
		C245.16,223.88,246.74,223.88,248.89,223.88z M179.24,336.99c6.69,0,12.89-0.12,19.08,0.05c2.78,0.08,3.65-0.88,3.64-3.63
		c-0.07-31.58-0.07-63.16-0.01-94.74c0.01-2.66-1.02-3.42-3.52-3.35c-4.88,0.14-9.79,0.28-14.66-0.04
		c-3.85-0.25-4.87,1.08-4.85,4.87c0.14,30.79,0.08,61.57,0.09,92.36C179.02,333.82,179.14,335.11,179.24,336.99z"/>
	<path class="st0" d="M167.59,73.02c0-6.91-0.02-13.48,0.01-20.05c0.05-11.13,0.49-11.57,11.63-11.6c8.85-0.02,17.7-0.02,26.55,0.02
		c5.73,0.03,7.91,2.77,7.71,8.4c-0.28,7.61-0.07,15.24-0.07,23.22c2.03,0,3.6,0,5.16,0c34.88,0,69.75,0.06,104.63-0.1
		c4.45-0.02,7.29,1.56,9.98,5.01c11.11,14.28,22.48,28.36,33.77,42.51c4.16,5.21,4.2,6.66,0.15,11.7
		c-11.52,14.3-23.11,28.54-34.55,42.91c-2.24,2.81-4.64,4.12-8.36,4.12c-62.22-0.1-124.45-0.06-186.67-0.06
		c-6.86,0-8.4-1.55-8.39-8.32c0.01-29.99,0.01-59.99,0.02-89.98c0-5.93,1.85-7.77,7.8-7.78C146.97,73.01,157,73.02,167.59,73.02z
		 M141.08,84.64c0,27.98,0,55.35,0,82.75c1.01,0.09,1.67,0.19,2.32,0.19c59.02,0.01,118.05,0.03,177.07-0.11
		c1.77,0,4.06-1.21,5.21-2.6c9.86-11.89,19.51-23.96,29.21-35.98c0.65-0.8,1.19-1.68,1.88-2.69c-10.21-12.78-20.4-25.41-30.4-38.19
		c-2-2.55-4.06-3.47-7.29-3.46c-55.46,0.11-110.92,0.09-166.38,0.09C148.91,84.64,145.11,84.64,141.08,84.64z M201.85,72.8
		c0-6.06,0.05-12.07-0.08-18.09c-0.01-0.58-1.11-1.62-1.73-1.63c-6.33-0.13-12.66-0.15-18.99-0.02c-0.67,0.01-1.88,1.19-1.89,1.86
		c-0.15,5.89-0.09,11.78-0.09,17.88C186.68,72.8,193.77,72.8,201.85,72.8z"/>
</g>
</svg>
