<?xml version="1.0" encoding="utf-8"?>
<!-- Generator: Adobe Illustrator 24.0.1, SVG Export Plug-In . SVG Version: 6.00 Build 0)  -->
<svg width="105px" height="105px" version="1.0" id="Шар_1" xmlns="http://www.w3.org/2000/svg" xmlns:xlink="http://www.w3.org/1999/xlink" x="0px" y="0px"
	 viewBox="0 0 390 390" style="enable-background:new 0 0 390 390;" xml:space="preserve">
<style type="text/css">
	.st0{fill:#29aae1;}
</style>
<g>
	<path class="st0" d="M68.63,220.44c0,6.85,0,13.04,0,19.22c0,10.44-0.01,20.88,0,31.32c0.01,6.62-0.09,5.6-5.91,5.71
		c-11.62,0.22-20.04,6.16-23.21,16.28c-5.6,17.84,5.52,33.4,24.01,33.4c87.99,0.03,175.98,0.02,263.97-0.01
		c13.54,0,23.47-8.62,24.47-21.97c0.97-12.98-4.6-23.56-18.05-26.97c-2.64-0.67-5.51-0.78-8.25-0.67c-3.14,0.13-4.08-1.03-4.06-4.11
		c0.12-15.46,0.06-30.92,0.05-46.38c0-1.7,0-3.39,0-5.51c-10.23,0-20.06,0-30.17,0c0-4.03,0-7.65,0-11.66c9.88,0,19.73,0,30.18,0
		c0-11.52,0-22.66,0-33.69c21.57-3.49,41.96,14.47,42.04,36.55c0.1,26.16,0.06,52.33,0,78.49c-0.01,5.53,0.09,11.13-0.65,16.59
		c-2.33,17.09-18.6,30.94-35.91,30.94c-87.46,0-174.92,0-262.39-0.01c-21.37,0-37.95-15.71-38.2-37.18
		c-0.35-29.99-0.35-60,0.11-89.99c0.34-21.64,20.63-38.66,41.8-35.45c0,10.94,0,21.97,0,33.41c10.31,0,20.15,0,30.29,0
		c0,4.02,0,7.64,0,11.68C89.01,220.44,79.16,220.44,68.63,220.44z M333.5,187.2c-0.17,1.14-0.38,1.88-0.38,2.63
		c-0.03,24.16-0.01,48.32-0.08,72.49c-0.01,2.44,1.04,3.16,3.22,4.04c4.47,1.82,8.66,4.33,12.96,6.58c0.86,0.45,1.66,0.99,2.73,1.62
		c0.11-0.98,0.22-1.49,0.22-2c0.01-20.73,0.07-41.46-0.08-62.19c-0.02-2.97-0.71-6.08-1.78-8.86
		C347.38,193.88,341.83,189.11,333.5,187.2z M38.1,274.06c5.44-2.7,10.33-5.54,15.53-7.53c2.75-1.05,3.61-2.17,3.6-4.99
		c-0.09-23.5-0.04-47-0.04-70.5c0-1.14-0.16-2.28-0.25-3.41c-9.46,0.6-16.81,9.74-17.97,17.26c-0.72,4.66-0.81,9.45-0.83,14.18
		C38.05,237.41,38.1,255.74,38.1,274.06z"/>
	<path class="st0" d="M195.06,90.6c10.92,10.83,21.63,21.38,32.26,32.02c14.75,14.76,29.4,29.62,44.18,44.35
		c1.93,1.92,2.73,3.84,2.72,6.58c-0.09,31.17-0.12,62.34,0.03,93.52c0.02,3.82-1.09,4.92-4.87,4.88
		c-19.67-0.19-39.35-0.12-59.03-0.16c-1.16,0-2.33-0.15-3.96-0.27c0-16.63,0-33.07,0-49.79c-7.65,0-14.82,0-22.46,0
		c0,16.65,0,33.08,0,50.14c-3.73,0-6.99,0-10.25,0c-17.56-0.02-35.13-0.14-52.69,0.01c-3.68,0.03-4.99-0.81-4.97-4.77
		c0.16-31.44,0.07-62.87,0.17-94.31c0.01-1.65,0.68-3.74,1.8-4.87c25.16-25.46,50.42-50.82,75.66-76.19
		C194.02,91.38,194.46,91.09,195.06,90.6z M217.94,210.1c0,1.73,0,3.05,0,4.36c0,14.01,0.07,28.01-0.04,42.02
		c-0.02,2.77,0.51,4.01,3.67,3.97c12.42-0.17,24.84-0.14,37.25-0.01c2.94,0.03,3.85-0.9,3.84-3.86c-0.1-26.3-0.01-52.59-0.16-78.89
		c-0.01-1.86-0.99-4.16-2.3-5.49c-20.68-20.99-41.48-41.85-62.27-62.74c-0.88-0.89-1.88-1.66-2.86-2.51
		c-0.84,0.74-1.36,1.15-1.82,1.61c-21.16,21.26-42.34,42.49-63.37,63.87c-1.36,1.38-2.11,3.95-2.12,5.97
		c-0.14,25.9-0.04,51.8-0.15,77.7c-0.01,3.19,0.75,4.4,4.16,4.35c12.15-0.19,24.31-0.08,36.46-0.1c1.27,0,2.54-0.14,4.18-0.24
		c0-16.88,0-33.34,0-50.01C187.68,210.1,202.55,210.1,217.94,210.1z"/>
	<path class="st0" d="M295.83,166.78c-33.36-32.66-66.93-65.52-100.73-98.61c-18.37,17.95-36.47,35.64-55.25,53.99
		c0-12.8,0-24.82,0-37.01c-4,0-7.48,0-11.39,0c0,4.61,0,8.93,0,13.26c0,10.57,0.06,21.14-0.07,31.71c-0.02,1.55-0.48,3.54-1.5,4.57
		c-10.53,10.59-21.21,21.02-31.86,31.48c-0.27,0.26-0.66,0.39-1.2,0.69c-2.45-2.53-4.91-5.07-7.64-7.9
		c0.92-0.98,1.86-2.03,2.86-3.02c8.46-8.36,17.01-16.63,25.32-25.13c1.37-1.4,2.39-3.82,2.41-5.78c0.19-15.72,0.11-31.45,0.11-47.17
		c0-1.3,0-2.61,0-4.24c11.52,0,22.78,0,34.38,0c0,6.61,0,13.17,0,19.73c0.31,0.21,0.62,0.41,0.93,0.62
		c14.15-13.84,28.31-27.68,42.92-41.97c36.37,35.61,72.65,71.13,109.15,106.87C301.39,161.58,298.74,164.06,295.83,166.78z"/>
</g>
</svg>
