<svg width="75px" height="93px" xmlns="http://www.w3.org/2000/svg" viewBox="0 0 297.09 372.11"><defs><style>.cls-1{fill:#29aae1;}</style></defs><g id="Слой_2" data-name="Слой 2"><g id="Шар_1" data-name="Шар 1"><path class="cls-1" d="M155.8,372.07H141.56c0-9.14-.19-18.07.09-27,.13-4.08-1.05-5.44-5.27-5.43q-58.38.23-116.75,0c-3.84,0-5.24,1-5.11,5,.3,9,.09,17.92.09,27.24H0v-5.89Q0,188.16,0,10.24C0,2.19,2.23,0,10.4,0L145.62,0c8.41,0,10.6,2.61,10.58,11.15Q156,79,156.11,146.89q0,110.3,0,220.58C156.1,368.93,155.91,370.39,155.8,372.07ZM14.85,14.7c-.09,1.88-.23,3.34-.23,4.81q0,150.48-.09,301c0,4,1.2,5,5.08,5q57.89-.18,115.76.07c5.18,0,6.33-1.58,6.32-6.52q-.21-149.48,0-299c0-4.74-1.52-5.85-6-5.83-38.09.14-76.18.07-114.27.08C19.34,14.35,17.23,14.57,14.85,14.7Z"/><path class="cls-1" d="M297,372.11H282.42c0-9.11-.26-18,.11-26.95.19-4.55-1.4-5.53-5.66-5.51-31.1.17-62.21.1-93.31.1h-6.69v-14c2-.12,4.13-.33,6.2-.33,31.11,0,62.21-.1,93.31.1,4.74,0,6.17-1.24,6.16-6.08q-.19-150-.11-300c0-1.47-.14-2.94-.24-5H177V.35c1.67-.11,3.27-.31,4.88-.31q52.63,0,105.28,0c7.67,0,10,2.47,10,10.22q0,177.68,0,355.36Z"/><path class="cls-1" d="M219.19,72.16c10.13,0,20.25,0,30.38,0,5.69,0,8.73,2.59,8.75,7.22s-3,7.34-8.68,7.36q-30.63.07-61.26,0c-5.64,0-8.76-2.72-8.79-7.28s3.14-7.27,8.72-7.29C198.6,72.12,208.9,72.16,219.19,72.16Z"/><path class="cls-1" d="M219.41,40c10.14,0,20.29-.06,30.44,0,5.76.05,8.65,2.69,8.49,7.41-.15,4.45-3,6.83-8.59,6.84-20.63,0-41.26.07-61.88,0-6,0-9.63-4.26-8.05-9.14,1.24-3.86,4.22-5.18,8.15-5.15,10.48.09,21,0,31.44,0Z"/><path class="cls-1" d="M218.9,251.56c10.31,0,20.62-.05,30.93,0,5.61,0,8.37,2.37,8.48,6.9.12,4.77-2.72,7.3-8.56,7.31q-30.69.07-61.37,0c-5.9,0-8.8-2.47-8.78-7.14s3-7.05,8.87-7.09C198.61,251.51,208.75,251.55,218.9,251.56Z"/><path class="cls-1" d="M218.9,285.61c10.15,0,20.29,0,30.44,0,6.08,0,8.87,2.24,9,6.91s-2.69,7.34-8.57,7.37q-30.93.12-61.87,0c-5.4,0-8.3-2.72-8.27-7.21s2.91-7,8.37-7.06C198.28,285.56,208.59,285.62,218.9,285.61Z"/><path class="cls-1" d="M175.52,169.73c0-3.8-.06-7.61,0-11.42.1-4.37,2.69-6.88,6.78-7.09s7.2,2.25,7.38,6.46c.34,8.09.33,16.22,0,24.31-.16,4.17-3,6.57-7.25,6.62-4,0-6.77-3-6.92-7.45C175.42,177.35,175.52,173.54,175.52,169.73Z"/><path class="cls-1" d="M78.68,72.16c9.79,0,19.59,0,29.38,0,6.12,0,9.31,2.46,9.39,7.11s-3.16,7.47-9.11,7.48q-30.37,0-60.75,0c-5.76,0-8.77-2.55-8.85-7.17-.09-4.83,3-7.39,9.06-7.41C58.09,72.13,68.39,72.16,78.68,72.16Z"/><path class="cls-1" d="M78.15,54.22c-10.31,0-20.62.06-30.94,0-5.62,0-8.4-2.44-8.49-6.92-.1-4.73,2.82-7.32,8.59-7.33q30.69-.06,61.38,0c5.83,0,8.79,2.56,8.78,7.19s-3,7-8.88,7.08C98.44,54.27,88.3,54.23,78.15,54.22Z"/><path class="cls-1" d="M78.14,265.81c-10.31,0-20.62.05-30.93,0-5.65,0-8.36-2.32-8.47-6.89-.11-4.76,2.72-7.3,8.57-7.32q30.69-.09,61.36,0c5.9,0,8.81,2.5,8.78,7.16s-3,7-8.87,7.07C98.43,265.85,88.29,265.81,78.14,265.81Z"/><path class="cls-1" d="M78.19,285.61c10.14,0,20.29,0,30.43,0,5.87,0,8.84,2.5,8.83,7.1s-2.91,7.16-8.82,7.18q-30.69.12-61.38,0c-5.74,0-8.64-2.7-8.51-7.45.13-4.53,2.85-6.81,8.51-6.85C57.56,285.57,67.88,285.61,78.19,285.61Z"/><path class="cls-1" d="M48.82,169.9c0,3.66.12,7.32,0,11-.19,4.94-3,7.82-7.22,7.76-4,0-6.84-2.86-6.94-7.51q-.24-11.22,0-22.45c.09-4.52,3-7.5,6.94-7.58s7.1,3.11,7.25,7.82c.11,3.66,0,7.32,0,11Z"/></g></g></svg>