<svg width="105px" height="83px" xmlns="http://www.w3.org/2000/svg" viewBox="0 0 418.66 331.46"><defs><style>.cls-1{fill:#29aae1;}</style></defs><g id="Слой_2" data-name="Слой 2"><g id="Шар_1" data-name="Шар 1"><path class="cls-1" d="M157.59,220.09c0-10.25-.12-20.19.16-30.12,0-1.17,2.05-2.73,3.47-3.35,9.29-4,18.72-7.75,28-11.88,1.56-.7,3.44-2.94,3.45-4.48.2-24.45.12-48.9.09-73.35a10.89,10.89,0,0,0-.61-2.09H149.53c0-10.77-.12-20.86.16-30.95,0-1.13,2.17-2.48,3.59-3.27,11.88-6.62,24.59-12.08,35.46-20.06a32.78,32.78,0,0,1,22.15-6.87c12.12.43,24.27.11,37.28.11v5.93c0,42.75.06,85.5-.11,128.25,0,4.3,1.3,6.62,5.19,8.34,7.29,3.22,14.42,6.82,21.5,10.49,1.38.71,3.15,2.4,3.19,3.69.27,9.76.15,19.53.15,29.61Zm15.13-14.43H263c1.56-5.51.49-9-5.08-11.22-6.47-2.53-12.49-6.2-18.88-9-4-1.73-5.55-3.89-5.52-8.54.24-40.41.14-80.83.14-121.24V48.4c-7.63,0-14.59.3-21.51-.09-5.91-.34-11,.61-15.48,4.84a41.45,41.45,0,0,1-8.27,5.53c-7.11,4-14.22,7.92-21.52,11.5-4,2-3,5.29-2.49,8.14.15.93,3,1.92,4.69,2,5.14.25,10.3.07,15.46.07h22.14a10.44,10.44,0,0,1,.6,2.09c0,32.6.1,65.19-.06,97.79,0,1.39-1.72,3.44-3.13,4.06-8.64,3.85-17.31,7.72-26.21,10.87C172.36,197.13,171.08,200.24,172.72,205.66Z"/><path class="cls-1" d="M46.7,266.18C70.78,255.3,94,249,118.23,260.77c15.34,7.45,24.92,20.74,31.92,35.76A19.61,19.61,0,0,0,161,307.19c7.32,3.12,14.48,6.65,21.65,10.11,4.77,2.29,6.39,6,4.57,10.05s-5.83,5.23-10.59,3.07c-8.32-3.76-16.45-7.95-24.88-11.45a14,14,0,0,0-8.8-.49c-14.3,4.42-28.67,7.23-43.63,4.06C80.75,318.6,68.17,306.69,58.87,291,54.27,283.29,50.87,274.82,46.7,266.18Zm20,8c13.05,33,41,42.58,70.67,30C124.49,271.76,97.25,261.52,66.71,274.21Z"/><path class="cls-1" d="M371.24,265.63c-5.57,17.83-13.87,33-27.43,44.72-16.55,14.31-35.9,15.81-56.34,11.35a15.17,15.17,0,0,1-3.84-1c-9.24-4.93-17.62-2.62-26.05,2.37-5,2.93-10.43,5-16.17,7.67-2.11-4.41-4.08-8.52-6.24-13,8.39-4,16.41-7.92,24.58-11.53a14.36,14.36,0,0,0,7.77-7.7c7.18-15.5,16.73-29.22,32.3-37.43,17.65-9.32,35.95-7.67,54.23-2.06C359.72,260.76,365.15,263.26,371.24,265.63Zm-89.9,38.7c25.82,14.46,63.42-1.6,70.63-30.17C321.44,261.62,294.07,271.7,281.34,304.33Z"/><path class="cls-1" d="M107.43,81.09c-4.37-.85-9.52-.42-12.09-2.8-1.9-1.76-.69-7.17-.46-10.93,1-16.52-5.68-29.41-18.59-39.19-5-3.78-10.55-6.81-16.56-10.64-4.39,11.82-6.33,23-4.37,35.29L41.22,55.7c-3.11-20,1.56-38.06,9.91-55.49C88.88,10.07,117.63,39.44,107.43,81.09Z"/><path class="cls-1" d="M363.41,52.91c1.88-12-.12-23.1-4.14-35.19-5,3-9.76,5.46-14.18,8.47C328,37.85,321,54,324.65,74.44c.58,3.25-.21,4.59-3.43,5s-6.45,1.18-9.65,1.79c-10.08-37,12.59-68.79,55.82-81.23,8.56,17.41,13.12,35.52,10.16,55.63Z"/><path class="cls-1" d="M19.83,68.58c50.25-1.38,82,26.46,78.37,75.69l-13.41-.92C84.19,125.23,82,108,66.93,95.8,57.31,88.05,45.9,85,32.82,83.23c.63,8.27,1.21,15.93,1.82,23.91l-13.28,3.35C17.89,96.52,18.13,82.75,19.83,68.58Z"/><path class="cls-1" d="M385.91,83.2c-16,2.27-30,6.34-40.15,18.46-9.95,11.91-11.37,26.51-11.85,41.68l-13.86,1c-.64-19,2.4-36.65,14.27-51.75C348.09,75.08,376.88,67,398.71,68.53a114.31,114.31,0,0,1-1.22,41.92l-13.44-3.28C384.66,99.22,385.26,91.55,385.91,83.2Z"/><path class="cls-1" d="M115.05,235l-13.41,5.84c-12.19-29.81-35-37.22-64.81-30.75a70.24,70.24,0,0,0,15,27.52L41.65,248.57c-3.6-5-7.52-9-9.71-13.86-4.45-9.76-8.06-19.91-11.79-30-.75-2-1.42-4.45,2-5.56,19.6-6.31,39.29-8.78,59-.76C97.86,205.23,107.49,218.84,115.05,235Z"/><path class="cls-1" d="M376.88,248.25l-10-10.48c6.57-8.11,12.18-16.79,14.95-27.73-13.42-2.69-26.33-3.63-38.9,1.73-12.85,5.48-20.18,16.27-26,29l-12.83-5.47c6.74-22.83,29.67-40.45,53.77-41.7A97.2,97.2,0,0,1,395.63,199c1.37.49,3.31,2.77,3.1,3.87C395.61,219.63,388.85,234.73,376.88,248.25Z"/><path class="cls-1" d="M418.51,127.12c1.19,16.34-4.95,43.94-12.21,54.39l-11.07-6.08c2.7-10.6,5.28-20.65,7.78-30.72a17.75,17.75,0,0,0,0-3.77c-12.2.41-23.31,2.91-33.42,9.22-10.48,6.55-15.53,16.86-19.2,28.4L337.26,175C344.31,137.32,380.83,122.87,418.51,127.12Z"/><path class="cls-1" d="M81.53,175l-13.47,3.52c-7-27-26.58-36.2-52.53-37.73.58,12,3.91,22.94,9.06,33.89l-11.94,6.73C5.85,175-1.51,140.4.27,127.32,36.12,119,76.63,142.49,81.53,175Z"/></g></g></svg>