<svg xmlns="http://www.w3.org/2000/svg" viewBox="0 0 383.25 342.19"><defs><style>.cls-1{fill:#29aae1;}</style></defs><g id="Слой_2" data-name="Слой 2"><g id="Шар_1" data-name="Шар 1"><path class="cls-1" d="M172.63,241.4a62.83,62.83,0,0,1-4.26,5.66C140,275.5,111.27,303.6,83.31,332.45c-12.48,12.88-30.54,10.92-39.71,1.83s-11.45-27.22,1.83-40.09c28.84-28,56.94-56.7,85.38-85.07a36,36,0,0,1,4.9-3.48l.39-2.4c-3.34-2.73-6.55-5.64-10.09-8.07a7.22,7.22,0,0,0-5.05-.72c-4.39.92-8.67,2.32-13,3.46-4.09,1.08-7.35.09-10.12-3.4C68.35,157.26,38.53,120.28,9.4,82.76-.17,70.42-1.42,55.4,1.18,40.28A88,88,0,0,1,5.93,23.52c3.52-9.1,13.43-12.24,21.36-6.59a109.21,109.21,0,0,1,14.51,13Q171.06,163,300.18,296.22c10.94,11.27,10.9,28,.1,38.49s-27.42,9.92-38.51-1.35q-41.55-42.25-83-84.63C176.94,246.84,175.37,244.67,172.63,241.4ZM20,29.06c-8.34,14.46-6.92,35.12,2.87,47.47,26.18,33,52.58,65.91,78.47,99.18,4.52,5.81,8.59,8,15.31,4.82a35.94,35.94,0,0,1,7.2-2,9.31,9.31,0,0,1,9.47,2.87q49.59,50.81,99.33,101.47,20.12,20.53,40.27,41c6.1,6.18,11.14,6.21,17.25.32,6.31-6.09,6.22-11.09-.42-17.93q-46.12-47.55-92.27-95.09Q113.22,124.41,28.94,37.59C26.18,34.75,23.21,32.11,20,29.06ZM144.76,215.9c-.27.24-1,.86-1.74,1.56Q98.47,262,53.93,306.58c-1.17,1.17-2.71,2.38-3.1,3.84-.68,2.6-1.53,5.73-.69,8.05C54,329,63.79,331.1,71.62,323.27q43.69-43.65,87.34-87.35c1.13-1.13,2.14-2.38,3.43-3.82Z"/><path class="cls-1" d="M246.26,168.79c-5.73,5.87-11,11.59-16.68,17-4.57,4.36-11.51,2.31-12.17-3.66a10.16,10.16,0,0,1,2.62-7c6.58-7.08,13.52-13.83,20.41-20.6,4.39-4.31,8.74-4.1,13,.35,3.23,3.37,6.35,6.84,9.74,10,8.05,7.55,16.37,7.55,24.29-.12s15.82-15.76,23.72-23.66L367.76,84.5c1.06-1.06,2.08-2.17,3.22-3.14,3.29-2.79,6.7-2.79,9.91,0s3.11,6.82.24,10.28c-.85,1-1.85,1.92-2.79,2.86Q339.1,133.79,299.85,173c-14.68,14.68-34.43,14.65-49.18,0C249.4,171.75,248.07,170.52,246.26,168.79Z"/><path class="cls-1" d="M208.91,131.69c-7.72-8.64-10.57-17.84-9.29-28.35a30,30,0,0,1,8.53-18.17q41-41,82-82C294-.63,298.51-1,301.57,2s2.78,7.48-1.12,11.39q-39.88,40-79.83,79.9c-10.66,10.67-10.7,18.34-.14,28.92,1.17,1.18,2.42,2.3,3.51,3.55,3.2,3.67,3.33,7.14-.06,10.65-7.07,7.3-14.28,14.47-21.55,21.56a7.37,7.37,0,0,1-10.33.42c-3-2.9-3.06-7.15.17-10.68,2.58-2.82,5.34-5.5,8.1-8.15S205.9,134.44,208.91,131.69Z"/><path class="cls-1" d="M262.17,102.58c-6.82,0-10.29-5.82-7.59-10.67a16.35,16.35,0,0,1,2.86-3.43Q286.23,59.65,315.1,30.9c1.67-1.66,4.08-3.47,6.2-3.53s5.43,1.32,6.58,3.12.53,4.92.25,7.41c-.11,1-1.38,1.81-2.2,2.63q-29.32,29.36-58.71,58.64A26.4,26.4,0,0,1,262.17,102.58Z"/><path class="cls-1" d="M287.4,130.12c-2.29-1.63-5-2.61-5.9-4.46-1-2.08-.61-5-.08-7.46.31-1.41,2-2.54,3.21-3.72q28.28-28.29,56.58-56.56a24.35,24.35,0,0,1,3.31-3,6.64,6.64,0,0,1,9.09.75c2.76,2.67,2.8,5.9,1,9.12a13.86,13.86,0,0,1-2.29,2.63q-29.16,29.18-58.37,58.3C292.24,127.35,290,128.4,287.4,130.12Z"/></g></g></svg>