<svg width="63px" height="64px" xmlns="http://www.w3.org/2000/svg" viewBox="0 0 432.9 440"><defs><style>.cls-1{fill:#3b7ded;}.cls-2{fill:#e43e2b;}.cls-3{fill:#2ba24c;}.cls-4{fill:#f0b501;}</style></defs><g id="Слой_2" data-name="Слой 2"><g id="Шар_1" data-name="Шар 1"><g id="_150-google" data-name="150-google"><path class="cls-1" d="M429.44,188.42a192.94,192.94,0,0,1,3.46,36.73c0,68.9-25.9,126.89-70.26,165.19L304.1,331.8C330,310.92,342,282.59,344.9,264.09H230V188.42Z"/><path class="cls-2" d="M367.52,57.57l-59.88,57.58c-65.36-63.07-177.6-34-213,49.22L33.45,103.15A219.65,219.65,0,0,1,220,0C279.25,0,329.11,21.74,367.52,57.57Z"/><path class="cls-3" d="M304.1,331.8l58.54,58.54C326.19,421.82,277.26,440,220,440A219.61,219.61,0,0,1,37.39,342.91L98.1,282.2c22.45,45.5,68.72,76.72,121.9,76.72C257.33,358.92,284.65,347.45,304.1,331.8Z"/><path class="cls-4" d="M98.1,282.2,37.39,342.91a220.76,220.76,0,0,1-3.94-239.76l61.22,61.22A143.32,143.32,0,0,0,98.1,282.2Z"/></g></g></g></svg>