<svg width="25px" height="25px" xmlns="http://www.w3.org/2000/svg" viewBox="0 0 485.9 486"><defs><style>.cls-1{fill:#29aae1;}</style></defs><g id="Слой_2" data-name="Слой 2"><g id="Layer_1" data-name="Layer 1"><path class="cls-1" d="M320.8,95.5H165.2a69.82,69.82,0,0,0-69.7,69.7V320.8a69.82,69.82,0,0,0,69.7,69.7H320.8a69.82,69.82,0,0,0,69.7-69.7V165.2A69.82,69.82,0,0,0,320.8,95.5ZM243,336.7A93.7,93.7,0,1,1,336.7,243,93.76,93.76,0,0,1,243,336.7Zm96.4-168.5A21.2,21.2,0,1,1,360.6,147,21.2,21.2,0,0,1,339.4,168.2Z"/><circle class="cls-1" cx="243" cy="243" r="61.2"/><path class="cls-1" d="M378.5,0h-271A107.46,107.46,0,0,0,0,107.5V378.4A107.48,107.48,0,0,0,107.5,486H378.4A107.46,107.46,0,0,0,485.9,378.5v-271A107.31,107.31,0,0,0,378.5,0ZM423,320.8A102.32,102.32,0,0,1,320.8,423H165.2A102.26,102.26,0,0,1,63,320.8V165.2A102.26,102.26,0,0,1,165.2,63H320.8A102.26,102.26,0,0,1,423,165.2Z"/></g></g></svg>