<svg width="30px" height="29px" xmlns="http://www.w3.org/2000/svg" viewBox="0 0 70.71 67.7"><defs><style>.cls-1{fill:#29aae1;fill-rule:evenodd;}</style></defs><g id="Слой_2" data-name="Слой 2"><g id="Шар_1" data-name="Шар 1"><path class="cls-1" d="M35.35,0h0A4.67,4.67,0,0,1,40,4.65V22a4.68,4.68,0,0,1-4.66,4.65h0A4.67,4.67,0,0,1,30.7,22V4.65A4.66,4.66,0,0,1,35.35,0Z"/><path class="cls-1" d="M.23,25.52h0a4.67,4.67,0,0,1,5.86-3l16.45,5.35a4.66,4.66,0,0,1,3,5.86h0a4.67,4.67,0,0,1-5.86,3L3.21,31.38a4.66,4.66,0,0,1-3-5.86Z"/><path class="cls-1" d="M13.64,66.82h0a4.66,4.66,0,0,1-1-6.5l10.16-14a4.66,4.66,0,0,1,6.5-1h0a4.67,4.67,0,0,1,1,6.5l-10.17,14a4.67,4.67,0,0,1-6.5,1Z"/><path class="cls-1" d="M57.06,66.82h0a4.66,4.66,0,0,1-6.49-1L40.4,51.8a4.67,4.67,0,0,1,1-6.5h0a4.66,4.66,0,0,1,6.5,1l10.16,14a4.66,4.66,0,0,1-1,6.5Z"/><path class="cls-1" d="M70.48,25.52h0a4.66,4.66,0,0,1-3,5.86L51.05,36.73a4.67,4.67,0,0,1-5.86-3h0a4.66,4.66,0,0,1,3-5.86l16.45-5.35a4.67,4.67,0,0,1,5.86,3Z"/></g></g></svg>