<svg width="27px" height="27px" xmlns="http://www.w3.org/2000/svg" viewBox="0 0 245.02 245"><defs><style>.cls-1{fill:#29aae1;}</style></defs><g id="Слой_2" data-name="Слой 2"><g id="Layer_1" data-name="Layer 1"><path class="cls-1" d="M0,122.5A122.28,122.28,0,1,1,84.26,238.94c8.71-50.57,40.64-91.8,82.83-109.3a27.25,27.25,0,1,0-6.62-17.86C106.63,128,63,165.55,40.87,213.86a122.41,122.41,0,0,1-18.73-21.1c1.27-47,24.54-88.15,59.38-112.37A27.24,27.24,0,1,0,74.64,62.3c0,.79,0,1.59.12,2.34C42.3,76,15.67,98.55.08,127.25,0,125.7,0,124.09,0,122.5"/></g></g></svg>