<svg xmlns="http://www.w3.org/2000/svg" viewBox="0 0 456.04 149.92"><defs><style>.cls-1{fill:#0f3196;}.cls-2{fill:#29aae1;}</style></defs><g id="Слой_2" data-name="Слой 2"><g id="Шар_1" data-name="Шар 1"><path d="M139.12,107.66V68.85H147l18.18,23.9V68.85h8.43v38.81h-7.26L147.55,83v24.67Z"/><path d="M205.1,107.66V68.85h29.28v7.6h-20.8v7.87h18.3v7.6h-18.3v8.15h21.07v7.59Z"/><path d="M278.23,108.22A23.83,23.83,0,0,1,261.77,102l5-6q5.71,4.71,11.59,4.71a7.27,7.27,0,0,0,4.1-1,3.15,3.15,0,0,0,1.5-2.77,3.11,3.11,0,0,0-1.55-2.69A24.4,24.4,0,0,0,276.18,92a45.83,45.83,0,0,1-5.38-1.63,18,18,0,0,1-3.91-2.14,7.8,7.8,0,0,1-2.71-3.35,12.26,12.26,0,0,1-.86-4.85,10.57,10.57,0,0,1,3.8-8.49,14.62,14.62,0,0,1,9.78-3.21,22.37,22.37,0,0,1,14.42,4.93l-4.44,6.44q-5.49-3.84-10.09-3.83a6.07,6.07,0,0,0-3.69,1,3,3,0,0,0-1.3,2.52,3.08,3.08,0,0,0,1.61,2.83,31.11,31.11,0,0,0,6.76,2.27q6.33,1.66,9.32,4.27t3,7.49a10.76,10.76,0,0,1-3.91,8.84Q284.67,108.23,278.23,108.22Z"/><path d="M334.45,107.94,318.76,68.85h9.43l10.14,27.34,10.15-27.34h9.2L342,107.94Z"/><path d="M386.24,107.66V68.85h8.54v38.81Z"/><path d="M435.69,107.66V76.73H423.88V68.85H456v7.88H444.23v30.93Z"/><path d="M139.61,149.62V131.89h3.9v7h7.19v-7h3.9v17.73h-3.9V142.5h-7.19v7.12Z"/><path d="M179.28,147.25a9.21,9.21,0,0,1-6.75,2.67,9.1,9.1,0,0,1-6.72-2.66,9.2,9.2,0,0,1,0-13,9.86,9.86,0,0,1,13.48,0,9.21,9.21,0,0,1,0,13Zm-10.55-2.54a5.37,5.37,0,0,0,7.68,0,5.64,5.64,0,0,0,1.49-4,5.58,5.58,0,0,0-1.52-3.95,5.05,5.05,0,0,0-3.85-1.62,5,5,0,0,0-3.82,1.61,5.95,5.95,0,0,0,0,7.92Z"/><path d="M196.82,149.87A10.88,10.88,0,0,1,189.3,147l2.3-2.77a8.27,8.27,0,0,0,5.29,2.16,3.31,3.31,0,0,0,1.88-.46,1.44,1.44,0,0,0,.68-1.26,1.42,1.42,0,0,0-.71-1.23,10.42,10.42,0,0,0-2.86-1,19.69,19.69,0,0,1-2.46-.75,8.13,8.13,0,0,1-1.78-1,3.59,3.59,0,0,1-1.24-1.53A5.72,5.72,0,0,1,190,137a4.82,4.82,0,0,1,1.74-3.87,6.69,6.69,0,0,1,4.47-1.47,10.2,10.2,0,0,1,6.58,2.25l-2,2.94a8.23,8.23,0,0,0-4.61-1.75,2.83,2.83,0,0,0-1.69.44,1.47,1.47,0,0,0,.14,2.45,14.49,14.49,0,0,0,3.09,1,10.45,10.45,0,0,1,4.26,2,4.29,4.29,0,0,1,1.37,3.42,5,5,0,0,1-1.79,4A7.23,7.23,0,0,1,196.82,149.87Z"/><path d="M215.91,149.62V135.49h-5.39v-3.6h14.69v3.6h-5.4v14.13Z"/><path d="M233.26,149.62V131.89h13.37v3.47h-9.49V139h8.35v3.47h-8.35v3.72h9.62v3.47Z"/><path d="M255.29,149.62V131.89h3.9v14.18H268v3.55Z"/><path class="cls-1" d="M78.35,65.34V146H58V134.13a18.79,18.79,0,0,0-18.79-18.79h0a18.8,18.8,0,0,0-18.8,18.79V146H0V65.34H20.38v31.2H58V65.34Z"/><polygon class="cls-2" points="14.02 47.25 1.95 33.92 39.41 0 76.88 33.92 64.81 47.25 39.41 24.26 14.02 47.25"/></g></g></svg>