<svg xmlns="http://www.w3.org/2000/svg" viewBox="0 0 459.83 317.92"><defs><style>.cls-1{fill:#0f3196;}.cls-2{fill:#29aae1;}</style></defs><g id="Слой_2" data-name="Слой 2"><g id="Шар_1" data-name="Шар 1"><path d="M0,260.42V204.1H11.42l26.39,34.67V204.1H50v56.32H39.5l-27.27-35.8v35.8Z"/><path d="M95.73,260.42V204.1h42.48v11H108v11.43h26.55v11H108v11.82h30.57v11Z"/><path d="M201.84,261.22a34.57,34.57,0,0,1-23.89-9l7.32-8.77q8.28,6.84,16.81,6.84a10.58,10.58,0,0,0,5.95-1.45,4.56,4.56,0,0,0,2.17-4,4.5,4.5,0,0,0-2.25-3.9q-2.25-1.49-9.09-3.26a68,68,0,0,1-7.8-2.37,25.71,25.71,0,0,1-5.67-3.1,11.35,11.35,0,0,1-3.94-4.87,17.8,17.8,0,0,1-1.25-7A15.34,15.34,0,0,1,185.71,208q5.5-4.67,14.2-4.66a32.44,32.44,0,0,1,20.91,7.16l-6.43,9.33q-8-5.55-14.64-5.55a8.8,8.8,0,0,0-5.35,1.41,4.37,4.37,0,0,0-1.89,3.66,4.44,4.44,0,0,0,2.33,4.1c1.55.91,4.83,2,9.81,3.3q9.18,2.41,13.52,6.19t4.34,10.86q0,8.2-5.67,12.83T201.84,261.22Z"/><path d="M283.41,260.82,260.64,204.1h13.68L289,243.76l14.72-39.66h13.36l-22.77,56.72Z"/><path d="M358.55,260.42V204.1h12.38v56.32Z"/><path d="M430.3,260.42V215.53H413.17V204.1h46.66v11.43H442.69v44.89Z"/><path d="M165.48,317.62V299.89h3.9v7h7.2v-7h3.9v17.73h-3.9V310.5h-7.2v7.12Z"/><path d="M205.16,315.25a9.86,9.86,0,0,1-13.48,0,9.21,9.21,0,0,1,0-13,9.21,9.21,0,0,1,6.75-2.67,9.1,9.1,0,0,1,6.72,2.66,9.22,9.22,0,0,1,0,13Zm-10.55-2.54a5,5,0,0,0,3.85,1.62,5,5,0,0,0,3.82-1.61,5.95,5.95,0,0,0,0-7.92,5.07,5.07,0,0,0-3.85-1.62,5,5,0,0,0-3.83,1.61,6,6,0,0,0,0,7.92Z"/><path d="M222.69,317.87a10.9,10.9,0,0,1-7.52-2.83l2.31-2.77a8.25,8.25,0,0,0,5.29,2.16,3.27,3.27,0,0,0,1.87-.46,1.46,1.46,0,0,0,0-2.49,10.56,10.56,0,0,0-2.86-1,18.69,18.69,0,0,1-2.46-.75,8.19,8.19,0,0,1-1.79-1,3.75,3.75,0,0,1-1.24-1.53,5.72,5.72,0,0,1-.39-2.22,4.82,4.82,0,0,1,1.74-3.87,6.65,6.65,0,0,1,4.47-1.47,10.21,10.21,0,0,1,6.58,2.25l-2,2.94a8.2,8.2,0,0,0-4.6-1.75,2.83,2.83,0,0,0-1.69.44,1.37,1.37,0,0,0-.59,1.16,1.4,1.4,0,0,0,.73,1.29,14.49,14.49,0,0,0,3.09,1,10.47,10.47,0,0,1,4.25,1.95,4.25,4.25,0,0,1,1.37,3.42,4.94,4.94,0,0,1-1.78,4A7.26,7.26,0,0,1,222.69,317.87Z"/><path d="M241.79,317.62V303.49h-5.4v-3.6h14.69v3.6h-5.39v14.13Z"/><path d="M259.14,317.62V299.89h13.37v3.47H263V307h8.36v3.47H263v3.72h9.63v3.47Z"/><path d="M281.17,317.62V299.89h3.9v14.18h8.84v3.55Z"/><path class="cls-1" d="M269.23,65.34V146H248.85V134.13a18.8,18.8,0,0,0-18.8-18.79h0a18.79,18.79,0,0,0-18.79,18.79V146H190.88V65.34h20.38v31.2h37.59V65.34Z"/><polygon class="cls-2" points="204.89 47.25 192.82 33.92 230.29 0 267.75 33.92 255.68 47.25 230.29 24.26 204.89 47.25"/></g></g></svg>