<svg xmlns="http://www.w3.org/2000/svg" viewBox="0 0 395.37 295.71"><defs><style>.cls-1{fill:#fff;}</style></defs><g id="Слой_2" data-name="Слой 2"><g id="Шар_1" data-name="Шар 1"><path class="cls-1" d="M151.68,147.84c0-17.49,0-35,0-52.48,0-7.53,5.68-10.8,12.12-7.06q44.89,26.06,89.7,52.28c2.31,1.36,4.87,4.21,5.11,6.58s-1.75,6-3.84,7.19q-45.6,26.84-91.55,53.1c-6.4,3.67-11.53.4-11.56-7.13C151.64,182.83,151.68,165.33,151.68,147.84Zm14.7,41,70.92-41-70.92-41Z"/><path class="cls-1" d="M395.35,200.5q0-83.53,0-167.06C395.29,14.52,380.88,0,362.2,0Q197.68,0,33.16,0A32.76,32.76,0,0,0,0,33Q-.08,148,0,263a30.52,30.52,0,0,0,6.05,18.68c6.8,9.13,15.79,14,27.34,14q82,0,164,0,81.75,0,163.52,0c20.24,0,34.31-14,34.37-34.16C395.4,241.18,395.35,220.84,395.35,200.5Zm-14.56,61.2c0,13.5-5.77,19.36-19,19.36q-164,0-328,0c-13.44,0-19.2-5.81-19.19-19.16,0-54-.28-216.07.2-232.2.29-9.66,7.16-15,17.65-15q81.26,0,162.51,0,83,0,166,0c14.15,0,19.77,5.47,19.81,19.55C380.77,38.49,380.8,211.17,380.79,261.7Z"/></g></g></svg>