<svg width="29px" height="29px" xmlns="http://www.w3.org/2000/svg" viewBox="0 0 1000 1000"><defs><style>.cls-1{fill:#fff;fill-rule:evenodd;}</style></defs><g id="Слой_2" data-name="Слой 2"><g id="Шар_1" data-name="Шар 1"><path class="cls-1" d="M500,0C223.86,0,0,223.86,0,500s223.86,500,500,500,500-223.86,500-500S776.14,0,500,0ZM731.76,340C724.23,419.1,691.68,611,675.11,699.52c-7,37.46-20.81,50-34.17,51.26-29,2.67-51.08-19.19-79.21-37.63-44-28.84-68.86-46.8-111.58-74.95-49.37-32.53-17.36-50.41,10.77-79.63,7.36-7.65,135.3-124,137.77-134.57.31-1.32.6-6.24-2.33-8.84s-7.23-1.71-10.35-1q-6.62,1.5-210.9,139.4-29.94,20.55-54.22,20c-17.86-.39-52.2-10.1-77.73-18.4-31.31-10.18-56.2-15.56-54-32.84q1.69-13.51,37.2-27.63Q445,399.47,517.92,369.12C656.77,311.37,685.63,301.33,704.43,301c4.14-.07,13.39,1,19.38,5.82,5.05,4.1,6.45,9.65,7.11,13.54A87.82,87.82,0,0,1,731.76,340Z"/></g></g></svg>