<svg width="27px" height="30px" xmlns="http://www.w3.org/2000/svg" viewBox="0 0 536.89 597.96"><defs><style>.cls-1{fill:#fff;}</style></defs><g id="Слой_2" data-name="Слой 2"><g id="Layer_1" data-name="Layer 1"><path class="cls-1" d="M478.33,51.76C464.33,39,403.9,1.07,277.81.52c0,0-149.31-9.81-221.79,55.84C15.68,96.19,2.09,155.42.6,227.7s-9.21,210.36,123,247.09c0,0-.52,102.51-.58,111.52,0,6.3,1,10.61,4.6,11.5,2.59.63,6.47-.71,9.77-4,21.14-21.23,88.82-102.88,88.82-102.88,90.81,5.93,163.06-12,170.83-14.54,18.32-5.89,117.41-14.4,134.18-149.86C548.55,186.9,524.85,91.59,478.33,51.76ZM423.24,381.22c0,.07-.05.19-.05.25a130.26,130.26,0,0,1-25.89,31.88c-.12.06-.12.12-.23.18q-13.38,11.18-26.29,12.71a17.67,17.67,0,0,1-3.84.24,34.77,34.77,0,0,1-11.18-1.72l-.28-.41c-13.26-3.74-35.4-13.1-72.27-33.44a429.94,429.94,0,0,1-60.72-40.11,316.91,316.91,0,0,1-27.31-24.22l-.92-.92-.92-.92-.92-.92-.92-.92a316.91,316.91,0,0,1-24.22-27.31,430.42,430.42,0,0,1-40.11-60.71c-20.34-36.88-29.7-59-33.44-72.28l-.41-.28a35.08,35.08,0,0,1-1.71-11.18,17,17,0,0,1,.23-3.84q1.6-12.88,12.73-26.31c.06-.11.12-.11.18-.23a129.39,129.39,0,0,1,31.88-25.88c.06,0,.18-.06.25-.06,12-6.25,23.38-4.13,31.12,5,.06.06,16.11,19.33,23,28.74q10.63,15,19.74,30.94c7.9,14.17,2.95,28.68-4.81,34.66L190.28,206.6c-7.9,6.38-6.86,18.23-6.86,18.23s23.18,87.73,109.79,109.84c0,0,11.85,1,18.23-6.86l12.44-15.65c6-7.76,20.48-12.71,34.66-4.81q15.93,9.09,30.91,19.74c9.41,6.92,28.68,23,28.74,23C427.37,357.84,429.49,369.22,423.24,381.22ZM351.58,164.75C334,145.61,310,135.17,278.13,132.84A8.43,8.43,0,0,1,279.36,116c35.88,2.63,64.36,15.19,84.65,37.34s30.3,50.18,29.59,83.08a8.44,8.44,0,0,1-8.43,8.25H385a8.43,8.43,0,0,1-8.25-8.61C377.36,207.26,369.13,183.93,351.58,164.75Zm-1.24,56.59a8.43,8.43,0,0,1-8,8.84h-.43a8.42,8.42,0,0,1-8.41-8c-1.42-28.65-14.9-42.66-42.4-44.09a8.43,8.43,0,0,1,.88-16.84C328.3,163.15,348.48,183.92,350.34,221.34ZM429.51,262h-.06a8.42,8.42,0,0,1-8.43-8.37c-.39-50.86-15.65-91.34-45.37-120.3s-67.39-43.9-111.82-44.21a8.43,8.43,0,0,1,.06-16.86H264c48.93.34,90.47,16.82,123.47,49s50,76.73,50.46,132.26A8.44,8.44,0,0,1,429.51,262Z"/></g></g></svg>