<svg width="28px" height="27px" xmlns="http://www.w3.org/2000/svg" viewBox="0 0 158.46 153.31"><defs><style>.cls-1{fill:#29aae1;fill-rule:evenodd;}</style></defs><g id="Слой_2" data-name="Слой 2"><g id="Шар_1" data-name="Шар 1"><path class="cls-1" d="M109.78,5.91A31.21,31.21,0,0,0,85.24,36.33c0,.32.08.71.09,1,22.13,4.71,33.29,19.63,33.29,39.3a40.16,40.16,0,0,1-40.18,40c-22.11,0-42.76-18.44-42.76-45.78,0-33.38,28.62-64.7,69.4-65.69.73,0,1.9,0,3.09.06A81.47,81.47,0,0,0,79.23,0C35.48,0,0,34.32,0,76.65s35.48,76.66,79.23,76.66S158.46,119,158.46,76.65c0-31.85-20.09-59.17-48.68-70.74Z"/></g></g></svg>